/* XPM */
static char *result[] = {
/* columns rows colors chars-per-pixel */
"64 64 95 2 ",
"   c #617821",
".  c #617822",
"X  c #627922",
"o  c #627923",
"O  c #617924",
"+  c #627924",
"@  c #627925",
"#  c #627A25",
"$  c #627A26",
"%  c #637A26",
"&  c #637A27",
"*  c #627A28",
"=  c #637A28",
"-  c #637B28",
";  c #637A29",
":  c #637B29",
">  c #637A2A",
",  c #637B2A",
"<  c #637B2B",
"1  c #647B2B",
"2  c #647C2B",
"3  c #637B2C",
"4  c #637B2D",
"5  c #637B2E",
"6  c #647B2C",
"7  c #647B2D",
"8  c #647B2E",
"9  c #637C2C",
"0  c #637C2D",
"q  c #637C2E",
"w  c #647C2C",
"e  c #647C2D",
"r  c #647C2E",
"t  c #647C2F",
"y  c #647D2F",
"u  c #657D2F",
"i  c #647C30",
"p  c #647D30",
"a  c #657D30",
"s  c #647C31",
"d  c #647D31",
"f  c #657D31",
"g  c #647D32",
"h  c #657D32",
"j  c #647D33",
"k  c #657D33",
"l  c #657E32",
"z  c #657E33",
"x  c #657D34",
"c  c #657E34",
"v  c #657E35",
"b  c #657F35",
"n  c #667E34",
"m  c #667E35",
"M  c #667F35",
"N  c #657E36",
"B  c #667E36",
"V  c #667F36",
"C  c #667F37",
"Z  c #667F38",
"A  c #668038",
"S  c #678038",
"D  c #668039",
"F  c #678039",
"G  c #66803A",
"H  c #67803A",
"J  c #67813A",
"K  c #67803B",
"L  c #67813B",
"P  c #67813C",
"I  c #67813D",
"U  c #67823D",
"Y  c #68813C",
"T  c #68813D",
"R  c #68823D",
"E  c #68823E",
"W  c #68823F",
"Q  c #68833F",
"!  c #688240",
"~  c #688340",
"^  c #698340",
"/  c #688341",
"(  c #698341",
")  c #698342",
"_  c #698442",
"`  c #698443",
"'  c #6A8443",
"]  c #698444",
"[  c #6A8444",
"{  c #6A8544",
"}  c #6A8545",
"|  c #6A8546",
" . c #6A8646",
".. c #6A8647",
"X. c #6B8647",
/* pixels */
"} {  .H + n | } m , J | | L w ` } | ~ t ( | | D < H ..] z t W | | H c } } | W d ` { f r ( ..W i k [ } { h H | } | V C | | _ t r ",
"{ {  .F o n | } m < L | | L e _ } | ^ r ( | | C ; H ..[ c t E | | H z { } | E d ` { i 7 ( ..W t h ] | [ d H | } | V V | | _ r t ",
"} {  .F X z | } c w L | | H e _ } | ~ r ^ | | Z , H  .[ z r E | | D h [ } | E d ` [ d 7 ( ..W t k [ | ] d H | } | C B | | _ q r ",
"} { ..D . c | } z < L | | H w ( | | ~ r ~ | | Z > F  .] c t W | | D h ] } | E d ` [ i 4 ( X.E r c ] | ` d F | } | V B | | ) t d ",
"} { ..Z   c | } z , L | | H e ( | | ~ r ~ | | C ; D ..] c d W | | D h ` } | T d _ { f r ( X.E r z [ | ` d D | } | B v } | ( t h ",
"} {  .A o z | } n w L | | H w ( | | ~ e W | | C < H ..[ c r W | } Z d ` } | R p _ [ i 7 ~ X.W t c ] | _ i Z | } } B V } | ( 5 i ",
"} }  .Z + c | } z w L | | F e ~ | | ~ e W | | C 3 H  .[ c t W | } C g ` } | R i _ [ d t ( ..W t z ] | _ r C | } } N N } | ( t d ",
"} { ..A @ c | } l : J | | F e W | | W e W | | C 6 H ..] c i E | } A g _ } | T t ) { d t ( ..W t h ` | _ t V } } } N N } | ( i g ",
"} {  .D $ c | } f : L | | S w W | | E e W | | C e D  .] c y E | } C f _ | | I t ( { f r ~ X.E t z ` | ) d m | } } z z } | ( t p ",
"} {  .Z $ c | } f : F | | C < W | | W e E | | C e F  .[ z t T | } m r ) | | E p ( [ p t ~ X.W d z ` | ) r c } } } c c } | ( i i ",
"} {  .Z # c | } z , H | | V 1 W | | W r E | | C 6 F  .[ c p E | } M p ( } | T t ( ] d t ~ X.W i c ` | ( r v } } } c v } | / s i ",
"} {  .C $ z | } l , J | } V < W | | W e E | | C r D | [ v p E | } v i ) } | T t ( ] d t W X.E r h `  .~ t v } } } c c } | ~ t d ",
"} {  .D % l | } h , L | } C < E | | W r R | | C r F | [ c r E | } v t ( | | I t ( { k p W X.W t k ` | ( d B } } } z c } | ( i d ",
"} }  .A $ z | } h : J | | V 6 E | | E e E | | C e F  .[ c t E | } v y ^ | | I t ( [ h i ~ X.E r k `  .~ t V } } } c c } | ~ t d ",
"} {  .V $ c | } f : F | } M < R | | R e R | | A r D  .] z p E | } c t ( | | P r ^ ] p t ~ X.R r d `  .~ t N } } } c k { | ~ t d ",
"} {  .S O c | { f , H | } c < E | | R e R | | A 6 D  .` c p E | } v r ^ | | P r ~ [ d i ~ X.E t h `  .W i v } } { z k { | ( t d ",
"} }  .A @ l | } f , H | } c < T | | R w I | | A e D  .[ l r E  .} v t ~ | | L r ~ [ d i ~ X.E t d `  .~ t c } } [ k z { | ( i p ",
"} {  .C # z | } h : G | } M , I | | T < P | | Z e D  .] h r E | } m t / | | K 3 ~ [ d t W X.E 5 i ` ..W 3 c } } { h k { | ( i i ",
"} {  .C = z } { z < D | } M , P | | R , P | | Z r D | ] z r R  .{ c t ~ | | L e / [ h t W X.E t d ` ..W 5 k { } { k z { | ( t i ",
"} }  .C # h } { z < F | } c , I | | E r T | | Z e C  .` k r R  .{ c r W | | P r ( ] h i ! X.E t d _ ..W 5 c { } { v z { | / t i ",
"} {  .V @ h | { h < F | } c < I | | E e T | } C r Z  .` z e I  .{ c r ~ | | L t ( ` h d ~ X.R t i ` ..W r c { } { k k { | ~ t t ",
"} {  .V $ l } { h < F | } c < Y | | E e P | } A t A  .` z e I  .{ z t Q | | P r ~ ` h d W X.R i p _ ..E 5 z { } } c h { | ~ i d ",
"} }  .C % l } { z e A | } z = P | | E r U | | C e A  .` c r P ..{ z t W | | L r ~ ] h i W X.E t p _ ..W 5 z { } { k c { | ~ i d ",
"} {  .D & f } { h < A | } c , P | | R t R | | A y F | ] z r P  .{ z r ~ | | L r ~ [ z i W X.E t h _ ..W t c { } [ d z { | ( i d ",
"} {  .D & h } { f , C  .} z 3 L | | P 9 I | | A r D | ` z r R  .{ h r W | | L e ~ [ h d Q X.E t d _ ..W s c [ } { h k { | ( h h ",
"} {  .Z & z | { l : A | } v 9 P | | I e P | | C r A  .] z t T  .{ c p W | | H e W [ z f ~ X.E t d ` ..W t c [ } { g g [  ./ p h ",
"} } | C : c } { h , A | } c 9 I | | I w U | | C r F  .` z r I  .{ z r W | | H r ! ] h p ~ X.E p d _ ..W 8 c [ } [ g k [ | ~ i h ",
"} } | A - l } { p , F | } z < P | | R e P | } C y A | ` z p R  .{ c t W | | K r ~ ` g d W X.R i g ` ..E 8 k { } [ g g { | ~ i k ",
"} { | A : l } { a 2 S | } c , L | | T 6 P | | A p A  .` z p R  .[ c d ! | | L r ! ] z h W X.I i g _ ..E 4 h [ } [ g d [ | ~ i h ",
"} { | A , z } { f < A | } v 3 P | | P < L | | Z t D  .` c t I  .[ z p W | | H r W ] z h ! X.T i h ` ..E 4 z [ | ` i h [ | / d d ",
"} {  .C : z | { a , A | } z e P | | P e P | } D t A  .` z t I  .[ z r E | | L r W ` h g ~ X.R i d ` ..W 4 h [ | ] d k [ | / s g ",
"} }  .C = z } { u , A | } m w P | | T w L | } D t A  .` c p E  .{ c t W | | L t E ` d g W X.R p h ` ..W 4 h [ } ] z k ]  ./ i g ",
"} }  .C : z } { p < Z | } b e P | | U e P | | A y D | ` c d R  .[ z t W | | L t W ` t d ~ X.R p h ` ..W r z [ } ] k h ]  .~ i z ",
"} }  .C ; z } { f , A  .} c w P | | Y e L | | C r A | ` z d R  .] c t W | | L t W ` t p W X.R t z `  .W t k [ } ] z c ]  ./ d c ",
"} }  .C : h } { f , A | } z e P | | Y 1 L | } C r A | ` h p U ..] k t W | | K p ~ ` d d W X.T p z ` ..E r h [ } ] c z ] | ( h c ",
"} }  .C , z } { f , Z | } z w P | | P w L | } C r A | ` z p I ..` z t W | | H t W ` p d W X.T i h _ ..E 4 h { } ] c k `  .~ g x ",
"} } | Z ; l } { f , C | } z < K | | Y r L | } Z r A  .` h p P ..] z t W | | L p W ` p p W X.I i k _ ..E 3 g ] | ] k c ]  .~ g j ",
"} }  .Z : z } { f w F | } v 6 L | | P e L | | A r A  .` d t P ..` h r W | | H p Q ` p i W X.I t k ` ..E 7 k ] | ] k k `  .~ s z ",
"} }  .C : v } { h 6 S | } z e H | | P r L | } Z r D ..` h t P ..` h r E | | H p Q ` p i W X.T t k ` ..E r d [ | ] k c ]  ./ i k ",
"} } | C = z } { h w A | } z 3 L | | P e L | } C r A  .` f r P ..` d t W | | H t W ` f t W X.R p h _ ..E r h ] | ] g k ]  .~ t h ",
"} } | A : z } { h w F | } z < L | | L e L | | C e A  .` f t I ..[ k t W | | D t W ] h p W X.I d k ` ..E r f ] | ] h z ] | / i h ",
"} } | Z < z } { h 6 S | } c 9 L | | L r P | | V e A | ` h t P ..` 5 t W | | Z t W ` d f Q X.I t k ` ..E r h ] | ] g k `  .~ d h ",
"} } | A 3 z } { l < Z | } v 9 L | | L r P | | C r C ..` h p P ..` s p E | | D r W ` d p W X.P t z ` ..E t h ] | [ h v ]  .! i k ",
"} }  .C , v } { f e H | } c w H | | P e P | } C r C  .` h t R  .[ c t E | | F r W ] z d ~ X.T t k ` ..W i i ` | ] k c `  .~ t h ",
"} } | A , M } } h 9 D | } M e H | | L w P | | Z t D | ] z r P ..] v y E | | G r W ] h g ! X.E i h ` ..E i f ] | ] c k `  .~ t d ",
"} } | Z < c } { l < A | } V e H | | J 3 P | } Z t D | ` h r P ..] c i E | | H t W ] h d W X.I d z ` ..E t f ` | ] z c ]  .~ i d ",
"} { | A 3 c } { z 9 D | } M < L | | L e U | | C r A  .` f e T ..[ c r E | | H t ~ ` f h ~ X.R i k ` ..W t g ] | ` g c ] | ~ d h ",
"} } | A , c } { z 3 D | } v , F | | L 0 P | } C r A  .` h r T  .[ c 3 E | | F r W ` f d W X.E p h ` ..E t d ` | ` k k ] | / d h ",
"} } | Z , c } { z < F | } v 3 J | | L t P | | C r A | ` f r R  .[ z e I | | F r W ` h p W X.R d h ` ..E p k ] | ` c c ` ..~ i f ",
"} }  .V - c | } z , D | } v , K | | P r P | | C r D  .` f t R  .[ z e R | | D t ! ` d p W X.E p k ` ..E t h [ | ] k c ] | ~ d k ",
"} }  .C : c } } h < F | } n , L | | P e P | } C r A | ] z r T  .] z e E | | H r W ] p p W X.E d h _ ..E t h ] | ] h k ]  .~ d h ",
"} } | A , c | } l , Z | } c , L | | P e P | | Z r F | ] h e P  .[ c r E | | L t W ] f i ~ X.R p h _ ..W r h ] | ] c c ] | ~ t g ",
"} } | F , z } { z 3 C | } c 3 L | | P w P | | A y A  .` z i P  .[ c y W | | L t W ] h p E X.I r p _ ..E t z [ | [ k c [ | ( d d ",
"} }  .C , c } { z < C | } c w H | | P e L | } C y A | ` c p P  .] z t E | | H t E ] h p E X.I t p ) ..E r k ] | ] c c ` ..~ d g ",
"} } | C , c } { l 3 C | } z < L | | P e P | } A t D  .` c p P ..[ f e W | | H t W ` h i W X.P y h _ ..E e c [ | ] c z ]  ./ h f ",
"} } | A , b | { h 3 C | } z < L | | I e L | } D p F  .` h t P ..] z r W | | H t E [ z d ~ X.T t h _ ..E e h [ | ] c c ]  ./ d h ",
"} }  .Z , b } { z < C | } c 1 L | | I r L | | A r D  .` h r P  .] z t E | | J r E [ z f ~ X.R p a _ ..E t z ] | ] c z `  .~ f f ",
"} } | Z w b } { z < C | } m e L | | P r P | | C r D  .` z r L ..` z t W | | J y W ] z d ~ X.P r d _ ..E p c ] | ] z z ]  .~ f h ",
"} } | A < c } { l w A | } M e P | | U y P | | A r D  .` l t P ..[ h p W | | L p W [ h d ~ X.P p h _ ..W p c [ | ] v v ] | ( h k ",
"} } | C * d } { z w S | } c r P | | E y L | } Z r C  .` z r P ..[ z p W | | H t W ` f d W X.P p f _ ..E t v [ | ] v x ] ../ d z ",
"} } | A : l } { z 3 F | } M r P | | I y P | | Z e A  .` c r R ..' c d W | | L p W [ h d ~ X.I t f ` ..E t c [ | ] v z ] ../ g c ",
"} }  .V < z } { l 3 A | } M r P | | P r L | } V e A  .` z r P ..` z d W | | H d W ` h d E X.R i f _ ..W i c [ | ] v c ]  ./ f z ",
"} }  .C - z } } z < D | } m t I | | P r L | } C e A  .` h r P ..] z d W | | H d W ] h d W X.R p h _ ..E t c ] | ] b c ] ../ d z ",
"} } | A ; z | { z e A | } M e P | | L y P | | A p D | ` h r T  .[ c d W | | K p E [ h d ~ X.R i f ` ..E t z [ | ] N v ] ..~ i c "
};
