/* XPM */
static char *result[] = {
/* columns rows colors chars-per-pixel */
"64 64 59 1 ",
"  c #42B962",
". c #44BB65",
"X c #45BB65",
"o c #45BC66",
"O c #46BC67",
"+ c #46BD67",
"@ c #47BD67",
"# c #47BD68",
"$ c #48BE69",
"% c #49BF6A",
"& c #4ABF6B",
"* c #4CC06D",
"= c #4DC16E",
"- c #4EC26E",
"; c #4EC26F",
": c #4FC370",
"> c #50C471",
", c #50C472",
"< c #51C472",
"1 c #52C573",
"2 c #53C574",
"3 c #53C575",
"4 c #53C674",
"5 c #55C776",
"6 c #56C877",
"7 c #56C878",
"8 c #57C878",
"9 c #57C978",
"0 c #57C979",
"q c #58C979",
"w c #58CA79",
"e c #58CB7A",
"r c #59CB7A",
"t c #59CA7B",
"y c #59CB7B",
"u c #5ACC7C",
"i c #5BCC7C",
"p c #5BCC7D",
"a c #5BCD7D",
"s c #5CCD7E",
"d c #5DCD7F",
"f c #5DCE7F",
"g c #5ECF7F",
"h c #5ECE80",
"j c #5ECF80",
"k c #5FCF80",
"l c #5ECF81",
"z c #5FCF81",
"x c #5FD080",
"c c #5FD081",
"v c #5FD082",
"b c #60D081",
"n c #60D082",
"m c #60D182",
"M c #60D183",
"N c #61D183",
"B c #61D283",
"V c #61D284",
"C c #64D184",
/* pixels */
"CCCCCCCCCCCCCCCCCCCCCCCCCCCCCCCCCCCCCCCCCCCCCCCCCCCCCCCCCCCCCCCC",
"jjjjjjjjjjjjjjjjjjjjjjjjjjjjjjjjjjjjjjjjjjjjjjjjjjjjjjjjjjjjjjjj",
"cccccccccccccccccccccccccccccccccccccccccccccccccccccccccccccccc",
"cccccccccccccccccccccccccccccccccccccccccccccccccccccccccccccccc",
"ccccccccccccccccccccccccccccccccccccccccccMBmccccccccccccccccccc",
"cccccccccccccccccccccccccccccccccccccccccc;o>mxccccccccccccccccc",
"ccckccccccccccccccccccccccccccccccccccccczq6evcccccccccccccccccc",
"ccmBNcccccccccccccccccccccccccccccccccccccMBmccccccccccccccccccc",
"cn<@-vzccccccccccccccccccccccccccccccccccccccccccczjjccccccccccc",
"cc036zcccccccccccccccccccccccccccccccccccccccccckM, #jcccccccccc",
"ccMVNcccccccccccccccccccccccccccccccccccccccccccccfsszcccccccccc",
"cccxcccccccccccccccccccccccccccccccccccccccccccccccnnccccccccccc",
"cccccccccccccccccccccccccccccccccccccccccccccccccccccccccccccccc",
"cccccccccccccccccccccccccccccccccccccccccccccccccccccccccccccccc",
"cccccccccccccccccccccccccccccccccccccccccccccccccccccccccccccccc",
"cccccccccccccccccccccccccccccccccccccccccccccccccccccccccccccccc",
"cccccccccccccccccccccccccccccccccccccccccccccccccccccccccccccccc",
"cccccccccccccccccccccccccccccccccccccccccccccccccccccccccccccccc",
"cccccccccccccccccccccccccccccccccccccccccccccccccccccccccccccccc",
"cccccccccccccccccccccccccccccccccccccccccccccccccccccccccccccccc",
"ccccccccccccccccccccccccccccccccccccccccccccccccccmmcccccccccccc",
"ccccccccccccccccxcccccccccccccccccccccccccccccccccarfccccccccccc",
"cccccccccccccccMVMccccccccccccccccccccccccccccmccc=X5Mxccccccccc",
"ccccccccccccccc019ncccccccccbMMccccccccccccccfijccnmcccccccccccc",
"ccccccccccccccc:$:nccccccccmqo&jccccccccccccm7*snccccccccccccccc",
"cccccccccccccccNVNccccccccccswtlcccccccccccccnMccccccccccccccccc",
"ccccccccccccccczjkccccccccccnNmccccccccccccccccccccccccccccccccc",
"cccccccccccccccccccccccccccccccccccccccccccccccccccccccccccccccc",
"cccccccccccccccccccccccccccccccccccccccccccccccccccccccccccccccc",
"cccccccccccccccccccccczzzzzzzzzzzzzzzzzzzzcccccccccccccccccccccc",
"cccccccccccccccccccccczzzzzzzzzzzzzzzzzzzzcccccccccccccccccccccc",
"cccccccccccccccccccccczzzzzzzzzzzzzzzzzzzzcccccccccccccccccccccc",
"cccccccccccccccccccccczzzzzzzzzzzzzzzzzzzzcccccccccccccccccccccc",
"cccccccccccccccccccccczzzzzzzzzzzzzzzzzzzzcccccccccccccccccccccc",
"cccccccccccccccccccccczzzzzzzzzzzzzzzzzzzzcccccccccccccccccccccc",
"cccccccccccccccccccccccccccccccccccccccccccccccccccccccccccccccc",
"cccccccccccccccccccccccccccccccccccccccccccccccccccccccccccccccc",
"cccccccccccccccccccccccccccccccccccccccccccccccccccccccccccccccc",
"cccccccccccccccccccccccccccccccccccccccccccccccccccccccccccccccc",
"cccccccccccccccccccccccccccccccccccccccccccccccccccccccccccccccc",
"cccccccccccccccccccccccccccccccccccccccccccccccccccccccccccccccc",
"cccccccccccccccccccccccccccccccccccccccccccccccccccccccccccccccc",
"cccccccccccccccccccccccccccccccccccccccccccccccccccccccccccccccc",
"cccccccccccccccccccccccccccccccccccccccccccccccccccccccccccmmccc",
"cccccccccccccccccccccccccccccccccccccccccccccccccccccccccns$Opmc",
"cccccccccccccccccccccccccccccccccccccccccccccccccccccccccchyyfcc",
"cccccccccccccccccccccccccccccccccccccccccccccccccccccccccccmmccc",
"cccccccccccccccccccccccccccccccccccccccccccccccccccccccccccccccc",
"cccccccccccccccccccccccccccccccccccccccccccccccccccccccccccccccc",
"cccccccccccccccccccccccccccccccccccccccccccccccccccccccccccccccc",
"cccccccccccccccccccccccccccccccccccccccccccccccccccccccccccccccc",
"cccccccccccccccccccccccccccccccccccccccccccccccccccccccccccccccc",
"cccccccccccccccccccccccccccccccccccccccccccccccccccccccccccccccc",
"cccccccccccccccccccccccccccccccccccccccccccccccccccccccccccccccc",
"cccccccccccccccccccccccccccccccccccccccccccccccccccccccccccccccc",
"cccccccccccccccccccccccccccccccccccccccccccccccccccccccccccccccc",
"ccccccccccccccccccccccccccccvccccccccccccccccccccccccccccccccccc",
"ccccccccccccccccccccccccccmu+#dncccccccccccccccccccccccccccccccc",
"cccccccjcccccccccccccccccccgipjccccccccccccccccccccccccccccccccc",
"ccccccmVNcccccccccccccccccccmmcccccccccccccccccccccccccccccccccc",
"cccccm8%>ncccccccccccccccccccccccccccccccccccccccccccccccmmncccc",
"cccccny47ccccccccccccccccccccccccccccccccccccccccccccccccptsvccc",
"ccccccmBNcccccccccccccccccccccccccccccccccccccccccccccccn:.2Mccc",
"zzzzzzjjjzzzzzzzzzzzzzzzzzzzzzzzzzzzzzzzzzzzzzzzzzzzzzzzzcmczzzz"
};
