/* XPM */
static char *result[] = {
/* columns rows colors chars-per-pixel */
"64 64 218 2 ",
"   c #000000",
".  c #00020C",
"X  c #010A0B",
"o  c #0E0400",
"O  c #1C0000",
"+  c #140600",
"@  c #1D1401",
"#  c #1F190F",
"$  c #000014",
"%  c #010F11",
"&  c #00001C",
"*  c #011315",
"=  c #021619",
"-  c #021B1E",
";  c #181919",
":  c #250100",
">  c #280700",
",  c #241A02",
"<  c #271600",
"1  c #3A0F00",
"2  c #2D2202",
"3  c #3B2C01",
"4  c #332704",
"5  c #2F2819",
"6  c #000021",
"7  c #00002A",
"8  c #021E22",
"9  c #001533",
"0  c #03272B",
"q  c #043238",
"w  c #142433",
"e  c #242525",
"r  c #323537",
"t  c #4C3803",
"y  c #503609",
"u  c #423E36",
"i  c #55420A",
"p  c #594508",
"a  c #594719",
"s  c #634D0B",
"d  c #684D00",
"f  c #6C540E",
"g  c #775B09",
"h  c #725A11",
"j  c #6A5313",
"k  c #7D6212",
"l  c #7E6100",
"z  c #6B5827",
"x  c #073B41",
"c  c #0B444A",
"v  c #0A4B52",
"b  c #12555D",
"n  c #0C5159",
"m  c #145D65",
"M  c #0F5C64",
"N  c #13636C",
"B  c #176C75",
"V  c #1A747D",
"C  c #17727C",
"Z  c gray28",
"A  c #595858",
"S  c #565450",
"D  c #62615F",
"F  c #545E69",
"G  c #6A6A68",
"H  c #757574",
"J  c #886B14",
"K  c #8E7019",
"L  c #9A7A1B",
"P  c #957617",
"I  c #916E05",
"U  c #A47F00",
"Y  c #917425",
"T  c #8A7546",
"R  c #AE8600",
"E  c #B68E07",
"W  c #AE8A1E",
"Q  c #A6831D",
"!  c #B08B1F",
"~  c #BA921D",
"^  c #B38F26",
"/  c #B99221",
"(  c #A6852A",
")  c #C99C00",
"_  c #C0981D",
"`  c #D9A900",
"'  c #EDBA0C",
"]  c #C49B23",
"[  c #C69E27",
"{  c #C19A31",
"}  c #CCA328",
"|  c #DBAE29",
" . c #D4A928",
".. c #D6AB30",
"X. c #E2B42A",
"o. c #EBBB2D",
"O. c #E7B82A",
"+. c #F0BF2B",
"@. c #E2B533",
"#. c #ECBD34",
"$. c #FDC500",
"%. c #FFCB00",
"&. c #F9C404",
"*. c #FFD200",
"=. c #FFCB1C",
"-. c #FCC819",
";. c #FFD11C",
":. c #FECB24",
">. c #F4C22F",
",. c #FAC72F",
"<. c #FECC2B",
"1. c #FFD32A",
"2. c #F9C631",
"3. c #FFCB31",
"4. c #FECC3A",
"5. c #F2C237",
"6. c #FFD133",
"7. c #FFDA35",
"8. c #FFD13B",
"9. c #FFE137",
"0. c #8C867D",
"q. c #B7B37F",
"w. c #DCB246",
"e. c #D6B058",
"r. c #D0B375",
"t. c #F8CB48",
"y. c #FFD445",
"u. c #FDCF5A",
"i. c #F7CB54",
"p. c #FFD459",
"a. c #EEC95E",
"s. c #DDC876",
"d. c #E9C964",
"f. c #FED26A",
"g. c #E5CC74",
"h. c #FFD678",
"j. c #F5CA64",
"k. c #1C7A84",
"l. c #1D7C86",
"z. c #007E8E",
"x. c #1E838D",
"c. c #1F8792",
"v. c #218C98",
"b. c #23929E",
"n. c #279DA9",
"m. c #269AA6",
"M. c #00ACBD",
"N. c #29A1AE",
"B. c #27A1AE",
"V. c #2AA5B2",
"C. c #2BA9B7",
"Z. c #2CADBA",
"A. c #2EB1BF",
"S. c #35B1BE",
"D. c #7E848D",
"F. c #7CC2BB",
"G. c #19BECF",
"H. c #00BDD2",
"J. c #0DBDD0",
"K. c #0CBED0",
"L. c #2FB4C2",
"P. c #24BECF",
"I. c #2CBECE",
"U. c #32BDCC",
"Y. c #34BBC9",
"T. c #45BFCA",
"R. c #00C2D5",
"E. c #32C0CF",
"W. c #3BC0CE",
"Q. c #34C3D3",
"!. c #3CC5D3",
"~. c #36CBDB",
"^. c #3AC9D6",
"/. c #2CC3D3",
"(. c #55C0C7",
"). c #41C5D2",
"_. c #66C0C3",
"`. c #73C2C0",
"'. c #8A8988",
"]. c #959799",
"[. c #8D8F91",
"{. c #B6AB96",
"}. c #9DA2A9",
"|. c #A7A6A5",
" X c #BCBCBC",
".X c #B4B4B4",
"XX c #AEAFB0",
"oX c #C4B18D",
"OX c #BEC597",
"+X c #8EC5B8",
"@X c #D4C783",
"#X c #C9C68D",
"$X c #FDD787",
"%X c #FEDA95",
"&X c #F9D796",
"*X c #ECCB87",
"=X c #FFE18B",
"-X c #DAC9AB",
";X c #EED6AB",
":X c #FFE7B9",
">X c #FFE5A9",
",X c #C7C7C8",
"<X c #D7D7D7",
"1X c #D4D2CE",
"2X c #FFECCB",
"3X c #FEEAC7",
"4X c #FFF2D5",
"5X c #FDECD0",
"6X c #E3E3E3",
"7X c #EAEAEA",
"8X c #E7E9EB",
"9X c #FFF8E8",
"0X c #F4F4F3",
"qX c #FEFCF4",
"wX c #FFFFFE",
"eX c #F5F8FB",
"rX c #F0EFEE",
"tX c None",
/* pixels */
"tXtXtXtXtXtXtXtXtXtXtXtXtXtXtXtXtXtXtXtXtXtXtXtXtXtXtXtXtXtX    tXtXtXtXtXtXtXtXtXtXtXtXtXtXtXtXtXtXtXtXtXtXtXtXtXtXtXtXtXtXtXtX",
"tXtXtXtXtXtXtXtXtXtXtXtXtXtXtXtXtXtXtXtXtXtXtXtXtXtXtXtXtX        tXtXtXtXtXtXtXtXtXtXtXtXtXtXtXtXtXtXtXtXtXtXtXtXtXtXtXtXtXtXtX",
"tXtXtXtXtXtXtXtXtXtXtXtXtXtXtXtXtXtXtXtXtXtXtXtXtXtXtXtX            tXtXtXtXtXtXtXtXtXtXtXtXtXtXtXtXtXtXtXtXtXtXtXtXtXtXtXtXtXtX",
"tXtXtXtXtXtXtXtXtXtXtXtXtXtXtXtXtXtXtXtXtXtXtXtXtXtXtX          % *   tXtXtXtXtXtXtXtXtXtXtXtXtXtXtXtXtXtXtXtXtXtXtXtXtXtXtXtXtX",
"tXtXtXtXtXtXtXtXtXtXtXtXtXtXtXtXtXtXtXtXtXtXtXtXtXtX        tXtX    *   tXtXtXtXtXtXtXtXtXtXtXtXtXtXtXtXtXtXtXtXtXtXtXtXtXtXtXtX",
"tXtXtXtXtXtXtXtXtXtXtXtXtXtXtXtXtXtXtXtXtXtXtXtXtX        tXtXtXtXl.  -   tXtXtXtXtXtXtXtXtXtXtXtXtXtXtXtXtXtXtXtXtXtXtXtXtXtXtX",
"tXtXtXtXtXtXtXtXtXtXtXtXtXtXtXtXtXtXtXtXtXtXtXtX        tXtXtXtXU.Q.V   8   tXtXtXtXtXtXtXtXtXtXtXtXtXtXtXtXtXtXtXtXtXtXtXtXtXtX",
"tXtXtXtXtXtXtXtXtXtXtXtXtXtXtXtXtXtXtXtXtXtXtX        tXtXtXtXQ.Q.Q.E.C   -   tXtXtXtXtXtXtXtXtXtXtXtXtXtXtXtXtXtXtXtXtXtXtXtXtX",
"tXtXtXtXtXtXtXtXtXtXtXtXtXtXtXtXtXtXtXtXtXtX        tXtXtXtXU.Q.Q.U.Q.Q.B   8   tXtXtXtXtXtXtXtXtXtXtXtXtXtXtXtXtXtXtXtXtXtXtXtX",
"tXtXtXtXtXtXtXtXtXtXtXtXtXtXtXtXtXtXtXtXtX        tXtXtXtXU.C X m.Q.U.U.U.B   8   tXtXtXtXtXtXtXtXtXtXtXtXtXtXtXtXtXtXtXtXtXtXtX",
"tXtXtXtXtXtXtXtXtXtXtXtXtXtXtXtXtXtXtXtX        tXtXtXtXU.B   X   n.Q.U.Q.U.B   8   tXtXtXtXtXtXtXtXtXtXtXtXtXtXtXtXtXtXtXtXtXtX",
"tXtXtXtXtXtXtXtXtXtXtXtXtXtXtXtXtXtXtX        tXtXtXtXU.B   %   *   n.Q.U.U.U.m   -   tXtXtXtXtXtXtXtXtXtXtXtXtXtXtXtXtXtXtXtXtX",
"tXtXtXtXtXtXtXtXtXtXtXtXtXtXtXtXtXtXtX      tXtXtXtXQ.V     c l.O @   N.Q.U.U.U.m   8   tXtXtXtXtXtXtXtXtXtXtXtXtXtXtXtXtXtXtXtX",
"tXtXtXtXtXtXtXtXtXtXtXtXtXtXtXtXtXtX      tXtXtXtXQ.k.    8 Z.^.z.  @   V.Q.U.Q.U.b   -   tXtXtXtXtXtXtXtXtXtXtXtXtXtXtXtXtXtXtX",
"tXtXtXtXtXtXtXtXtXtXtXtXtXtXtXtXtX      tXtXtXtXQ.l.    * Z.).H.+XR $ <   V.Q.U.Q.U.n   -   tXtXtXtXtXtXtXtXtXtXtXtXtXtXtXtXtXtX",
"tXtXtXtXtXtXtXtXtXtXtXtXtXtXtXtX      tXtXtXtXQ.l.  X X Z.).H.+X<.6.Q . <   Z.Q.U.E.U.v   -   tXtXtXtXtXtXtXtXtXtXtXtXtXtXtXtXtX",
"tXtXtXtXtXtXtXtXtXtXtXtXtXtXtX      tXtXtXtXQ.v.  X   C.).H.F.3.:.4.6.L . >   Z.Q.U.E.Y.c   -   tXtXtXtXtXtXtXtXtXtXtXtXtXtXtXtX",
"tXtXtXtXtXtXtXtXtXtXtXtXtXtX      tXtXtXtXQ.v.  %   C.).H.F.2.:.4.<.3.6.P $ > % C.Q.U.Q.Y.c   -   tXtXtXtXtXtXtXtXtXtXtXtXtXtXtX",
"tXtXtXtXtXtXtXtXtXtXtXtXtX      tXtXtXtXQ.v.  *   V.).H.`.4.:.4.<.3.3.3.3.P . : 8 Z.Q.U.Q.L.x   -   tXtXtXtXtXtXtXtXtXtXtXtXtXtX",
"tXtXtXtXtXtXtXtXtXtXtXtX        tXtXtXQ.b.  *   V.).H._.t.=.4.<.3.3.3.3.3.3.K $ : 0 A.Q.U.Q.L.x   -   tXtXtXtXtXtXtXtXtXtXtXtXtX",
"tXtXtXtXtXtXtXtXtXtXtX        tXtXtX~.b.  =   B.!.H._.t.=.4.3.3.3.3.3.3.3.3.3.J $ : q L./.U.Q.L.q   =   tXtXtXtXtXtXtXtXtXtXtXtX",
"tXtXtXtXtXtXtXtXtXtX        tXtXtXQ.m.  =   n.!.H._.t.=.4.3.3.3.3.3.3.3.3.3.3.3.J $ : q L.E.U.Q.L.0   =   tXtXtXtXtXtXtXtXtXtXtX",
"tXtXtXtXtXtXtXtXtX        tXtXtXQ.n.  =   n.).H.(.i.-.4.<.3.3.3.3.3.3.3.3.3.3.3.3.k & : x L.E.U.!.Z.0   =   tXtXtXtXtXtXtXtXtXtX",
"tXtXtXtXtXtXtXtX        tXtXtX~.N.  =   m.!.H.(.i.&.4.<.3.3.3.3.3.3.3.3.3.3.3.3.3.3.h $ : c L.Q.Y.Q.Z.-   =   tXtXtXtXtXtXtXtXtX",
"tXtXtXtXtXtXtX        tXtXtX~.N.  =   m.!.K.T.a.%.4.3.2.3.3.3.3.3.3.3.3.3.3.3.3.2.3.,.f & : v Y.Q.U.Q.Z.*   *   tXtXtXtXtXtXtXtX",
"tXtXtXtXtXtX        tXtXtX~.N.  -   b.!.G.).a.%.4.6.3.6.3.3.3.3.3.3.6.3.3.6.3.3.3.3.3.2.s & : v Y.E.U.Q.C.    *   tXtXtXtXtXtXtX",
"tXtXtXtXtX        tXtXtX~.C.  =   b.!.G.W.d.%.8.X.Q P Q O.6.3.3.3.3.[ L L / ,.3.3.3.3.3.,.s $ : v U.E.U.Q.C.    *   tXtXtXtXtXtX",
"tXtXtXtX        tXtXtX~.C.  =   v.!.P.U.d.%.8./           ] 3.3.>.h         i o.3.3.3.3.6.>.p & : n U.Q.U.Q.V.    *   tXtXtXtXtX",
"tXtXtX        tXtXtX~.Z.  =   v.^.P.P.g.%.4. .  +   , . X   @.6.K       o .   f <.3.3.3.2.6.>.i & : M I.Q.U.Q.V.    %   tXtXtXtX",
"tXtX        tXtXtX~.Z.  =   c.!.I.G.s.%.4.6.J     ] 2.~   . L #.    s O.5.l $   ..6.3.3.3.2.<.>.t & O N U.I.U.Q.N.    %   tXtXtX",
"tX        tXtXtXtXZ.  *   x.!.I.H.s.%.4.,.,.p   k 8.%.8.z   g ) .   } 8.*.w.    E ;.3.3.3.3.3.3.o.3 & : N Q.U.U.Q.n.    X   tXtX",
"        tXtXtXtXA.  *   x.!.I.H.s.%.4.3.3.,.s   a =.p.qX X  |.-X  & ^ *.>X0XD   <Xh.$.4.<.3.3.3.6.o.3 6 : N Q.Q.U.Q.m.  X - tXtX",
"        tXtXtXL.  X   l.!.E.H.@X%.4.6.3.,.6.W   $ g oXeXwX7XwX0Xr   ; R 1XwX0X0XwX4X&.4.6.3.2.3.3.6.o.2 & O B Q.I.U.Q.m.    tXtX",
"tX    *   tXL.  .   l.Q.U.H.@X%.8.>.L p i K } y   7   '.wXwXwXwX{.  6 &   1XwXwX.XG i h [ 3.3.3.3.,.6.O.@ 6 O C Q.U.U.Q.V.n.U.tX",
"tXtX  X   k.q     V Q.W.H.@X%.4.o.4           ! J $   ].wXwXwXwX=X) 5 $   <XwXH           Q 3.3.3.3.3.6.X.  & O V Q.U.U.Q.Q.~.E.",
"tXtXtX  X       V Q.W.H.#X%.4.3.k     i h &   3 5.' e.wXwX<X XXX[ >.4.` ;XwXXX  w 5 h = #    .6.<.3.3.,.6.X.  6 o l.Q.U.U.U.~.Q.",
"tXtXtXtX  0   V E.W.H.#X%.4.3.O.    k 2.6.R $ & ] 8.1.r.F           P ,.8.>XA   y O.8.`   & K 3.4.<.3.3.3.3.| , X   S.Q.U.~.tXtX",
"tXtXtXtXtX  v E.!.H.#X%.4.3.6.|     } 6.%.*X    ( 6.^     & 6 6 $ & $ 4 >.' 3   P 6.&.h.S   z 4.:.4.3.3.3.2.6.W   < M./.~.tXtXtX",
"tXtXtXtXtXtXtXtXR.OX%.4.3.3.6.O.    Y &.:XwX}.A 6X-X  e $ L ..@.) y o . f 4.a   a ' =XwX,Xu 1X5X$.4.4.3.3.3.6.W . 1 {.).P.tXtXtX",
"tXtXtXtXtXtXtXtX@X1.3.3.3.3.3.3.h   $ d |.0XwXwXwXH   & ] 8.<.%.p.%XG   .  .^   ; t 0.7XwXwXwXwXf.$.4.<.3.3.6.W   . $.g.tXtXtXtX",
"tXtXtXtXtX  tXtXtX7.3.3.3.3.3.3.X.    7    XwXwX6X  & P 8.=.4.3XqXwX7X    K :.j   7   0.wXwXwXwX%X$.4.3.3.3.6.W     2.*.tXtXtXtX",
"tXtXtXtX    , tXtX7.3.3.3.3.3.3.3.O.K t S 6XwXwX X  6  .<.4.9XwXwXwXwXH   r i.-.( i e ,XwXwXwXwXu.-.4.3.3.3.6.W     ,.8.tXtXtXtX",
"tXtXtXtX    , tXtX7.3.3.3.3.3.3.3.6.8.&.&XwXwXwXA   5 #.%.3XwXwXwXwXwXXX  & {.y.<.-.a.qXwXwXwX:X$.4.3.3.3.3.6.W     ,.6.tXtXtXtX",
"tXtXtXtX    , tXtX7.3.3.3.3.3.3.3.3.3.4.%.f.:X[.  & L :.u.qXwXwXwXwXwX7X  o 9 w.<.4.%.i.>X:X$X%.4.3.3.3.3.,.6.W     ,.6.tXtXtXtX",
"tXtXtXtX    , tXtX7.3.3.3.3.3.3.3.3.3.3.4.&.I   $ 2 5.%.%XwXwXwXwXwXwXwX.X  ;   X.3.4.:.$.%.$.4.3.3.3.3.3.2.6.W     ,.6.tXtXtXtX",
"tXtXtXtX    , tXtX7.3.3.3.3.3.3.3.3.3.3.6.} 6 ;   X.y.$.2XwXwXwXwXwXwXwXwX|.  6 i 2.3.3.4.4.4.3.3.3.3.3.3.3.6.W     ,.6.tXtXtXtX",
"tXtXtXtX    , tXtX7.3.3.3.3.3.3.3.3.3.3.3.f o   | 8.$.$XwXwXwXwXwXwXwXwXwXwX[.  & } 8.2.4.3.3.3.3.3.3.<.3.3.6.W     ,.6.tXtXtXtX",
"tXtXtXtX    , tXtX6.3.3.3.3.3.<.3.3.3.3.o.    P 8.$.h.wXwXwXwXwXwXwXwXwXwXwX7X  . I =.3.<.3.3.3.3.3.3.3.3.3.6.W     2.6.tXtXtXtX",
"tXtXtXtX    , tXtX7.3.3.3.3.3.3.3.3.3.6.|     } ;.u.qXwXwXwXwXwXwXwXwXwXwXwXwXA   G $X%.4.3.3.3.3.3.3.3.3.3.3.W     ,.6.tXtXtXtX",
"tXtXtXtX    , tXtX7.3.3.3.3.3.<.3.3.3.3.|   . ^ %.5XwXwXwXwXwXwXwXwXwXwXwXwXwX].  }.9X$.4.3.3.3.3.3.3.3.3.3.6.W     ,.6.tXtXtXtX",
"tXtXtXtX    , tXtX7.3.3.3.3.3.3.3.3.3.3.o.    I p.qXwXwXwXwXwXqXwXwXwXwXwXwXwXwX<XqXwXh.$.4.3.3.3.3.3.3.3.3.6.W     2.6.tXtXtXtX",
"tXtXtXtX    , tXtX7.3.3.3.3.3.3.3.3.3.3.3.h $   r.wXwXwXwXwXwXwXwXwXwXwXwXwX X<XwXwXwX%X$.4.3.3.3.3.3.3.3.2.6.W     ,.6.tXtXtXtX",
"tXtXtXtX    , tXtX7.3.3.3.3.3.3.3.3.3.3.6. .  ,   .X0XqX8X,X|.|.XX<X0XqX6X'.    6XwXwX$X%.4.3.<.3.3.3.3.3.3.6.W     ,.6.tXtXtXtX",
"tXtXtXtX    , tXtX6.3.<.3.3.3.3.3.3.3.3.2.3.W   o   e S ;           Z Z       r 0XwXwXu.:.4.3.3.3.3.3.3.3.3.6.W     ,.6.tXtXtXtX",
"tXtXtXtX    , tXtX7.3.3.3.3.3.3.3.3.3.3.3.3.6.~   7           ;   .         G 7XwXwX3X$.4.3.3.3.3.<.3.3.3.3.3.!     ,.6.tXtXtXtX",
"tXtXtXtX    , tXtX7.3.3.3.3.3.3.3.3.<.3.3.3.3.6.o.E T D.]. X6X7X<XXX[.D.].,XwXwXwX9X4.<.3.<.3.3.3.3.3.3.3.2.3.!     ,.6.tXtXtXtX",
"tXtXtXtX    , tXtX7.3.3.3.<.3.3.3.3.3.3.<.3.3.2.3.6.y.:XwXwXwXwXqX4X2X9XwXwXwXqX3X4.=.4.<.3.3.3.3.3.3.3.3.<.6.W     ,.6.tXtXtXtX",
"tXtXtXtX    , tXtX7.3.3.3.3.3.3.3.3.2.3.3.2.3.2.<.2.<.&.t.$X$Xf.%.&.&.%.u.$X$Xu.&.<.4.<.2.3.3.2.3.3.3.2.3.,.6.W     ,.6.tXtXtXtX",
"tXtXtXtX    , tXtX9.6.3.3.6.3.3.6.3.6.3.6.6.3.6.3.6.6.8.:.%.%.%.3.y.4.8.;.%.%.:.8.6.6.3.3.3.6.6.6.3.3.6.6.3.6.^     ,.6.tXtXtXtX",
"tXtXtXtX    @ tX} >.X.X.X.X.X.X.X.X.X.X.X.X.X.X.X.X.X.X.X.@.@.@.X.X.X.X.@.@.@.X.X.X.X.X.X.X.X.X.X.X.X.X.X.X.O.L     ,.6.tXtXtXtX",
"tXtXtXtX      o                                                                                               o 2   ,.6.tXtXtXtX",
"tXtXtXtX      o                                                                                                     6.6.tXtXtXtX",
"tXtXtXtXtXtX, tXJ / W ! ! W ^ W ! ! ! ! ! ! ^ W ! ! ! ! ! ! ! ! ! ! ! ! ! ! ! ! ! ! ! ! ! ! ! ! ! ! ! ! ! ! ! ! W | 7.3.tXtXtXtX",
"tXtXtXtXtXtXtXtXtX9.6.6.6.6.6.6.6.6.6.6.6.6.6.6.6.6.6.6.6.6.6.6.6.6.6.6.6.6.6.6.6.6.6.6.6.6.6.6.6.6.6.6.6.6.6.6.6.6.7.3.tXtXtXtX"
};
