/* XPM */
static char *result[] = {
/* columns rows colors chars-per-pixel */
"64 64 20 1 ",
"  c gray93",
". c #EEEEEE",
"X c #EFEFEF",
"o c gray94",
"O c #F1F1F1",
"+ c gray95",
"@ c #F3F3F3",
"# c #F4F4F4",
"$ c gray96",
"% c #F6F6F6",
"& c gray97",
"* c #F8F8F8",
"= c #F9F9F9",
"- c gray98",
"; c #FBFBFB",
": c gray99",
"> c #FDFDFD",
", c #FEFEFE",
"< c white",
"1 c None",
/* pixels */
"1111111111111111111111111111111111111111111111111111111111111111",
"1111111111111111111111111111111111111111111111111111111111111111",
"1111111111111111111111111111111111111111111111111111111111111111",
"1111111111111111111111111111111111111111111111111111111111111111",
"1111111111111111111111111111111111111111111111111111111111111111",
"1111111111111111111111111111111111111111111111111111111111111111",
"1111111111111111111111111111111111111111111111111111111111111111",
"1111111111111111111111111111111111111111111111111111111111111111",
"1111111111111111111111111111111111111111111111111111111111111111",
"1111111111111111111111111111111111111111111111111XX....111111111",
"11111111111111111111111111111111111111111111111X+<;%$*>>X1111111",
"1111111111111111111111111111111111111111111111.<.....X.X<.111111",
"111111111111111111111111111111111111111111111.&X........ < 11111",
"11111111111111111111111111111111111111111111 <X..........&.11111",
"11111111111111111111111111111111111111111111.@X..........#.11111",
"11111111111111111111111111111111111111111111o...........X@ 11111",
"11111111111111111111111111111111111111111111>............X.11111",
"1111111111111111111111111111111111111111111X<.............*11111",
"1111111111111111111111111111111111111111111.-............X< 1111",
"1111111111111111111111111111111111111111111..............X&.1111",
"11111111111111111111111111111111111111111Xoo...............;1111",
"111111111111111111111111111111111111111X&>.................*.111",
"1111111111111111111111111111111111111.:-...................X<111",
"11111111111111111111111111111111111.<&X.....................X.11",
"11111111111111111111111111111111X.<#XX.......................;.1",
"111111111111111111111111111111..<O............................:1",
"1111111111111111111111111111X$>.X.............................>.",
"11111111111111111111111111.-;.................................+X",
"111111111111111111111111.,*.X..................................X",
"111111111111111111111..,#                 ......................",
"1111..X*&X.11111111.X<O                   ......................",
"111X<#....*<.1111.+,XX.                   ....#<=X............*X",
"1.<........X> ..-:....                    .X%<XX >............<1",
"1<...........+<*......                   .%,X1111 <..........<.1",
".*...........X........                 .$,X11111111&*...XX.@< 11",
".o...................................X%, 11111111111.,:=;,;X1111",
".X.................................X%,X111111111111111X X.111111",
" %...............................X%, 111111111111111111111111111",
".<..............................%,.11111111111111111111111111111",
"1+..........................X.%, 1111111111111111111111111111111",
"11<X......................X.&, 111111111111111111111111111111111",
"11 >+...................X.&,.11111111111111111111111111111111111",
"1111.%..................&> 1111111111111111111111111111111111111",
"11111 #...............%,.111111111111111111111111111111111111111",
"111111&..............& 11111111111111111111111111111111111111111",
"111111X:............& 111111111111111111111111111111111111111111",
"1111111*...........X<1111111111111111111111111111111111111111111",
"1111111 %...........,1111111111111111111111111111111111111111111",
"1111111.<X..........-1111111111111111111111111111111111111111111",
"11111111$............1111111111111111111111111111111111111111111",
"11111111.%.........= 1111111111111111111111111111111111111111111",
"111111111<X......X.,11111111111111111111111111111111111111111111",
"111111111.> ...X.+<X11111111111111111111111111111111111111111111",
"1111111111.<#O#;,X1111111111111111111111111111111111111111111111",
"11111111111X....111111111111111111111111111111111111111111111111",
"1111111111111111111111111111111111111111111111111111111111111111",
"1111111111111111111111111111111111111111111111111111111111111111",
"1111111111111111111111111111111111111111111111111111111111111111",
"1111111111111111111111111111111111111111111111111111111111111111",
"1111111111111111111111111111111111111111111111111111111111111111",
"1111111111111111111111111111111111111111111111111111111111111111",
"1111111111111111111111111111111111111111111111111111111111111111",
"1111111111111111111111111111111111111111111111111111111111111111",
"1111111111111111111111111111111111111111111111111111111111111111"
};
