/* XPM */
static char *result[] = {
/* columns rows colors chars-per-pixel */
"64 64 169 2 ",
"   c #74DAF7",
".  c #76DAF7",
"X  c #7DDBF7",
"o  c #81DCF7",
"O  c #82DCF7",
"+  c #83DCF7",
"@  c #83DDF7",
"#  c #84DDF7",
"$  c #85DDF7",
"%  c #86DDF7",
"&  c #8EDEF7",
"*  c #8FDEF7",
"=  c #8EDFF7",
"-  c #8FDFF7",
";  c #85DDF8",
":  c #86DDF8",
">  c #87DDF8",
",  c #88DDF8",
"<  c #88DEF8",
"1  c #89DEF8",
"2  c #8ADEF8",
"3  c #8BDEF8",
"4  c #8CDEF8",
"5  c #8DDEF8",
"6  c #8DDFF8",
"7  c #8EDEF8",
"8  c #8FDEF8",
"9  c #8EDFF8",
"0  c #8FDFF8",
"q  c #8FDFF9",
"w  c #90DFF7",
"e  c #90DEF8",
"r  c #90DFF8",
"t  c #91DFF8",
"y  c #90DFF9",
"u  c #91DFF9",
"i  c #92DFF8",
"p  c #8EE0F7",
"a  c #8EE0F8",
"s  c #8FE0F8",
"d  c #8FE0F9",
"f  c #8FE0FA",
"g  c #90E0F8",
"h  c #91E0F8",
"j  c #90E0F9",
"k  c #92E0F8",
"l  c #93E0F8",
"z  c #90E1FA",
"x  c #90E1FB",
"c  c #91E1FB",
"v  c #91E2FB",
"b  c #94E0F8",
"n  c #95E0F8",
"m  c #96E0F8",
"M  c #96E1F8",
"N  c #97E1F8",
"B  c #91E2FC",
"V  c #92E3FC",
"C  c #92E3FD",
"Z  c #93E5FF",
"A  c #93E6FF",
"S  c #94E6FF",
"D  c #94E7FF",
"F  c #98E1F8",
"G  c #99E1F8",
"H  c #9AE1F8",
"J  c #9BE2F8",
"K  c #9EE2F9",
"L  c #95E8FF",
"P  c #96E9FF",
"I  c #97EBFF",
"U  c #97ECFF",
"Y  c #98EDFF",
"T  c #98EEFF",
"R  c #99EEFF",
"E  c #99EFFF",
"W  c #9AEFFF",
"Q  c #9AF0FF",
"!  c #9AF1FF",
"~  c #9BF1FF",
"^  c #A0E3F9",
"/  c #A3E3F9",
"(  c #A4E3F9",
")  c #A3E4F9",
"_  c #A4E4F9",
"`  c #A5E4F9",
"'  c #A6E4F9",
"]  c #A9E5F9",
"[  c #AAE5F9",
"{  c #ABE5F9",
"}  c #ACE5F9",
"|  c #ADE6F9",
" . c #AFE6F9",
".. c #B0E7F9",
"X. c #B1E7F9",
"o. c #B1E7FA",
"O. c #B3E7FA",
"+. c #B4E8FA",
"@. c #B5E8FA",
"#. c #B6E8FA",
"$. c #B7E8FA",
"%. c #B8E9FA",
"&. c #B9E9FA",
"*. c #BBEAFA",
"=. c #BDEAFA",
"-. c #BEEAFA",
";. c #BFEBFA",
":. c #C0EBFA",
">. c #C2EBFA",
",. c #C3ECFA",
"<. c #C2ECFB",
"1. c #C5ECFB",
"2. c #C6ECFB",
"3. c #C7EDFB",
"4. c #C9EDFB",
"5. c #C9EEFB",
"6. c #CAEEFB",
"7. c #CBEEFB",
"8. c #CCEEFB",
"9. c #CDEFFB",
"0. c #CFEFFB",
"q. c #D0EFFB",
"w. c #D3F0FB",
"e. c #D2F0FC",
"r. c #D4F1FC",
"t. c #D5F1FC",
"y. c #D6F1FC",
"u. c #D7F2FC",
"i. c #D8F2FC",
"p. c #DAF3FC",
"a. c #DBF3FC",
"s. c #DDF3FC",
"d. c #DDF4FC",
"f. c #DFF4FC",
"g. c #E0F5FC",
"h. c #E1F5FC",
"j. c #E1F5FD",
"k. c #E2F5FD",
"l. c #E3F6FD",
"z. c #E5F6FD",
"x. c #E6F6FD",
"c. c #E7F7FD",
"v. c #E8F7FD",
"b. c #E9F8FD",
"n. c #EAF8FD",
"m. c #EBF8FD",
"M. c #EDF9FD",
"N. c #EEF9FD",
"B. c #EFF9FE",
"V. c #F1FAFE",
"C. c #F2FAFE",
"Z. c #F2FBFE",
"A. c #F3FBFE",
"S. c #F4FBFE",
"D. c #F5FBFE",
"F. c #F5FCFE",
"G. c #F6FCFE",
"H. c #F7FCFE",
"J. c #F8FCFE",
"K. c #F8FDFE",
"L. c #F9FDFE",
"P. c #FAFDFE",
"I. c #FBFEFF",
"U. c #FCFEFF",
"Y. c #FDFEFF",
"T. c #FEFEFF",
"R. c #FEFFFF",
"E. c white",
"W. c None",
/* pixels */
"W.W.W.W.W.W.W.W.W.W.W.W.W.W.W.W.W.W.W.W.W.W.W.W.W.W.& 8 y s 0 q q 0 9 y 8 & W.W.W.W.W.W.W.W.W.W.W.W.W.W.W.W.W.W.W.W.W.W.W.W.W.W.",
"W.W.W.W.W.W.W.W.W.W.W.W.W.W.W.W.W.W.W.W.W.W.s 8 s U E Y P A v d d v A P Y E U s 0 d W.W.W.W.W.W.W.W.W.W.W.W.W.W.W.W.W.W.W.W.W.W.",
"W.W.W.W.W.W.W.W.W.W.W.W.W.W.W.W.W.W.W.W.s S E L j s 7 8 0 0 0 0 0 0 0 0 8 7 s d L E S s W.W.W.W.W.W.W.W.W.W.W.W.W.W.W.W.W.W.W.W.",
"W.W.W.W.W.W.W.W.W.W.W.W.W.W.W.W.W.j 0 E D 0 0 g r 0 0 0 0 0 0 0 0 0 0 0 0 0 0 r g 0 0 D E 0 * W.W.W.W.W.W.W.W.W.W.W.W.W.W.W.W.W.",
"W.W.W.W.W.W.W.W.W.W.W.W.W.W.W.W.s Q B 0 s 0 0 0 0 0 0 0 0 0 0 0 0 0 0 0 0 0 0 0 0 0 0 s 0 B Q - W.W.W.W.W.W.W.W.W.W.W.W.W.W.W.W.",
"W.W.W.W.W.W.W.W.W.W.W.W.W.W.* E C 8 0 0 0 0 0 0 0 0 0 0 0 0 0 0 0 0 0 0 0 0 0 0 0 0 0 0 0 0 8 C E s W.W.W.W.W.W.W.W.W.W.W.W.W.W.",
"W.W.W.W.W.W.W.W.W.W.W.W.W.7 I 8 0 0 0 0 0 0 0 0 0 0 0 0 0 0 0 0 0 0 0 0 0 0 0 0 0 0 0 0 0 0 0 0 8 I 8 W.W.W.W.W.W.W.W.W.W.W.W.W.",
"W.W.W.W.W.W.W.W.W.W.W.7 T z 7 0 0 0 0 0 0 0 0 0 0 0 0 0 0 0 0 0 0 0 0 0 0 0 0 0 0 0 0 0 0 0 0 0 0 7 z R 8 W.W.W.W.W.W.W.W.W.W.W.",
"W.W.W.W.W.W.W.W.W.W.q ~ 8 0 0 0 0 0 0 0 0 0 0 0 0 0 0 0 0 0 0 0 0 0 0 0 0 0 0 0 0 0 0 0 0 r r r 0 0 0 8 ~ 8 W.W.W.W.W.W.W.W.W.W.",
"W.W.W.W.W.W.W.W.W.0 ! 0 g 0 0 0 0 0 0 0 0 0 0 0 0 0 0 0 0 0 0 0 0 0 0 0 0 0 0 0 0 0 r k r 5 4 9 t t 0 0 0 Q a W.W.W.W.W.W.W.W.W.",
"W.W.W.W.W.W.W.W.q Q 9 0 0 0 0 0 0 0 0 0 0 0 0 0 0 0 0 0 0 0 0 0 0 0 0 0 0 0 0 0 0 i 2 o 2 N J l # # r r 0 9 Q 8 W.W.W.W.W.W.W.W.",
"W.W.W.W.W.W.W.7 ~ 0 0 0 0 0 0 0 0 0 0 0 0 0 0 0 0 0 0 0 0 0 0 0 0 0 0 0 0 0 0 r r O ) r.M.H.P.D.k.&.< 3 t 0 0 ~ 8 W.W.W.W.W.W.W.",
"W.W.W.W.W.W.W.T 8 r 0 0 0 0 0 0 0 0 0 0 0 0 0 0 0 0 0 0 0 0 0 0 0 0 0 0 0 0 t 5 1 q.R.E.E.E.E.E.E.E.x.F 1 t & 8 R W.W.W.W.W.W.W.",
"W.W.W.W.W.W.7 z 0 0 0 0 0 0 0 0 0 0 0 0 0 0 0 0 0 0 0 0 0 0 0 0 0 0 0 0 0 r 5 r z.E.E.Y.R.R.E.R.T.Y.E.S.H 3 r 0 z 8 W.W.W.W.W.W.",
"W.W.W.W.W.* I q 0 0 0 0 0 0 0 0 0 0 0 0 0 0 0 0 0 0 0 0 0 0 0 0 0 0 0 0 0 r 1 z.E.Y.E.E.E.E.E.E.E.E.Y.E.n.2 0 0 q I g W.W.W.W.W.",
"W.W.W.W.W.E 8 0 0 0 0 0 0 0 0 0 0 0 0 0 0 0 0 0 0 0 0 0 0 0 0 0 0 0 0 0 k O 0.E.Y.E.E.E.E.E.E.E.E.E.E.Y.E.>.@ i 0 8 E W.W.W.W.W.",
"W.W.W.W.s C 0 0 0 0 0 0 0 0 0 0 0 0 0 0 0 0 0 0 0 0 0 0 0 0 0 0 0 0 0 r 2 / R.E.E.E.E.E.E.E.E.E.E.E.E.T.E.v.% t 0 0 C - W.W.W.W.",
"W.W.W.j Q 8 0 0 0 0 0 0 0 0 0 0 0 0 0 0 0 0 0 0 0 0 0 0 0 0 0 0 0 0 0 i O p.E.Y.E.E.E.E.E.E.E.E.E.E.E.R.E.S.i 9 0 0 8 Q * W.W.W.",
"W.W.W.0 B 0 0 0 0 0 0 0 0 0 0 0 0 0 0 0 0 0 0 0 0 0 0 0 0 0 0 0 0 0 r 4 J P.E.E.E.E.E.E.E.E.E.E.E.E.E.R.E.C.0 0 0 0 0 B 0 W.W.W.",
"W.W.W.E 0 0 0 0 0 0 0 0 0 0 0 0 0 0 0 0 0 0 0 0 0 0 0 0 0 0 0 0 0 0 i @ -.E.T.E.E.E.E.E.E.E.E.E.E.E.E.Y.E.j.$ i 0 0 0 0 E W.W.W.",
"W.W.s D s 0 0 0 0 0 0 0 0 0 0 0 0 0 0 0 0 0 0 0 0 0 0 0 0 0 0 0 0 0 i O a.E.T.E.E.E.E.E.E.E.E.E.E.E.E.E.R.` X t t 0 0 s D 0 W.W.",
"W.W.S 0 0 0 0 0 0 0 0 0 0 0 0 0 0 0 0 0 0 0 0 0 0 0 0 0 0 0 0 0 0 0 t 6 N.E.R.E.E.E.E.E.E.E.E.E.E.E.R.E.S.3.@.0 % t 0 0 0 D W.W.",
"W.s E 0 0 0 0 0 0 0 0 0 0 0 0 0 0 0 0 0 0 0 0 0 0 0 0 0 0 0 0 0 r l 1 4 H.E.R.E.E.E.E.E.E.E.E.E.E.E.E.E.E.E.E.A.+.$ t 0 0 E e W.",
"W.8 L s 0 0 0 0 0 0 0 0 0 0 0 0 0 0 0 0 0 0 0 0 0 0 0 0 0 0 r k 5 o F t.E.E.E.E.E.E.E.E.E.E.E.E.E.E.E.E.E.T.T.E.E.O.$ t s L 0 W.",
"W.s d r 0 0 0 0 0 0 0 0 0 0 0 0 0 0 0 0 0 0 0 0 0 0 0 0 r k 5 o N 0.P.E.E.E.E.E.E.E.E.E.E.E.E.E.E.E.E.E.E.E.E.Y.E.D.k 9 r d 0 W.",
"W.U s 0 0 0 0 0 0 0 0 r t t t r r 0 0 0 0 0 0 0 0 0 0 k 6 o m 9.K.E.E.T.E.E.E.E.E.E.E.E.E.E.E.E.E.E.E.E.E.E.E.E.Y.E.:.+ t s U W.",
"& E q 0 0 0 0 0 0 t t 4 > ; : , 4 t k r 0 0 0 0 0 k 9 o b 7.H.E.E.Y.E.E.E.E.E.E.E.E.E.E.E.E.E.E.E.E.E.E.E.E.E.E.T.E.s.O i 7 E * ",
"8 Y 8 0 0 0 0 t 0 @ : G } +.O.] G > o 2 i r 0 i 9 O k 5.G.E.E.Y.R.E.E.E.E.E.E.E.E.E.E.E.E.E.E.E.E.E.E.E.E.E.E.E.R.E.b.< r s Y d ",
"y P 0 0 0 0 i 1 3 ;.c.L.E.E.E.E.L.v.7.^ O 1 0 O t 3.D.E.E.Y.R.E.E.E.E.E.E.E.E.E.E.E.E.E.E.E.E.E.E.E.E.E.E.E.E.E.R.E.B.4 0 0 P - ",
"= A 0 0 0 i % ) M.E.E.E.E.R.R.E.E.E.E.U.d.` 9 1.S.E.E.Y.R.E.E.E.E.E.E.E.E.E.E.E.E.E.E.E.E.E.E.E.E.E.E.E.E.E.E.E.T.E.c.% t 0 Z r ",
"0 v 0 0 t > [ U.E.Y.R.R.E.E.E.E.E.T.Y.E.E.I.Z.E.E.Y.R.E.E.E.E.E.E.E.E.E.E.E.E.E.E.E.E.E.E.E.E.E.E.E.E.E.E.E.E.E.Y.E.0.o k 0 c 8 ",
"q d 0 r 4 M G.E.Y.E.E.E.E.E.E.E.E.E.E.E.Y.E.E.T.R.E.E.E.E.E.E.E.E.E.E.E.E.E.E.E.E.R.E.E.E.E.E.E.E.E.E.E.E.E.E.R.E.Y.^ 2 r 0 0 s ",
"q d 0 i O t.E.Y.E.E.E.E.E.E.E.E.E.E.E.E.E.E.R.E.E.E.E.E.E.E.E.E.E.E.E.E.E.E.E.Y.E.E.Y.R.E.E.E.E.E.E.E.E.E.E.R.Y.E.8.@ i 0 0 0 s ",
"0 v r 6 b G.E.R.E.E.E.E.E.E.E.E.E.E.E.E.E.E.E.E.E.E.E.E.E.E.E.E.E.E.E.E.E.T.E.E.U.H.E.E.T.R.R.E.E.E.E.E.R.Y.E.E.p.> r 0 0 0 x 8 ",
"9 A h >  .E.R.E.E.E.E.E.E.E.E.E.E.E.E.E.E.E.E.E.E.E.E.E.E.E.E.E.E.E.E.T.E.E.E.f.` N e.J.E.E.E.E.R.R.R.E.E.E.Y.6.% 0 r 0 0 0 Z g ",
"y P k # *.E.R.E.E.E.E.E.E.E.E.E.E.E.E.E.E.E.E.E.E.E.E.E.E.E.E.E.E.T.R.E.E.g.] O 1 5 o M <.z.J.E.E.E.E.R.C.r.^ + r r 0 0 0 0 P - ",
"8 Y h # &.E.R.E.E.E.E.E.E.E.E.E.E.E.E.E.E.E.E.E.E.E.E.E.E.E.E.T.R.E.E.k.{ @ < k r r k 5 + $ N { #.%.@.` 0 o 2 i 0 0 0 0 0 s Y 7 ",
"p E u , { E.E.E.E.E.E.E.E.E.E.E.E.E.E.E.E.E.E.E.E.E.E.E.E.R.R.E.E.l.| # > i t 0 0 0 0 r i t 5 , $ $ ; 1 0 k r 0 0 0 0 0 0 7 E * ",
"W.U s 9 k D.E.R.E.E.E.E.E.E.E.E.E.E.E.E.E.E.E.E.E.E.E.R.R.E.E.z. .# > t t 0 0 0 0 0 0 0 0 0 r t t t t r 0 0 0 0 0 0 0 0 0 s U W.",
"W.s d k O t.E.U.E.E.E.E.E.E.E.E.E.E.E.E.E.E.E.E.E.E.R.E.E.x.X.$ > t t 0 0 0 0 0 0 0 0 0 0 0 0 0 0 0 0 0 0 0 0 0 0 0 0 0 r d 0 W.",
"W.0 L g 5 b A.E.Y.Y.R.E.E.E.E.E.E.E.E.E.E.E.E.E.E.R.E.V.o.: : t t 0 0 0 0 0 0 0 0 0 0 0 0 0 0 0 0 0 0 0 0 0 0 0 0 0 0 0 s L q W.",
"W.7 E 0 t 1 K m.E.E.E.E.E.E.E.E.E.E.E.E.E.E.E.E.E.Y.E.4.. b t 0 0 0 0 0 0 0 0 0 0 0 0 0 0 0 0 0 0 0 0 0 0 0 0 0 0 0 0 0 0 E g W.",
"W.W.S 0 9 t 2 2 %.r.z.E.E.E.E.E.E.E.E.E.E.E.E.E.E.R.E.*.: t 0 0 0 0 0 0 0 0 0 0 0 0 0 0 0 0 0 0 0 0 0 0 0 0 0 0 0 0 0 0 0 D W.W.",
"W.W.j D g 0 r r ,   y.E.T.E.E.E.E.E.E.E.E.E.E.E.E.E.T._ 1 r 0 0 0 0 0 0 0 0 0 0 0 0 0 0 0 0 0 0 0 0 0 0 0 0 0 0 0 0 0 g D 0 W.W.",
"W.W.W.E 0 0 0 r 4 ` E.E.E.E.E.E.E.E.E.E.E.E.E.E.R.E.B.3 r 0 0 0 0 0 0 0 0 0 0 0 0 0 0 0 0 0 0 0 0 0 0 0 0 0 0 0 0 0 0 0 E W.W.W.",
"W.W.W.0 B 0 0 i @ ;.E.T.E.E.E.E.E.E.E.E.E.E.E.E.Y.E.0.o k 0 0 0 0 0 0 0 0 0 0 0 0 0 0 0 0 0 0 0 0 0 0 0 0 0 0 0 0 0 0 B q W.W.W.",
"W.W.W.* Q 8 0 i O 2.E.T.E.E.E.E.E.E.E.E.E.E.E.E.E.Y.^ 2 r 0 0 0 0 0 0 0 0 0 0 0 0 0 0 0 0 0 0 0 0 0 0 0 0 0 0 0 0 0 8 Q d W.W.W.",
"W.W.W.W.- C 0 t $ $.E.T.E.E.E.E.E.E.E.E.E.E.E.Y.E.u.O k 0 0 0 0 0 0 0 0 0 0 0 0 0 0 0 0 0 0 0 0 0 0 0 0 0 0 0 0 0 0 V d W.W.W.W.",
"W.W.W.W.W.E 8 r 9 k F.E.R.E.E.E.E.E.E.E.E.E.T.E.G.m 5 r 0 0 0 0 0 0 0 0 0 0 0 0 0 0 0 0 0 0 0 0 0 0 0 0 0 0 0 0 0 8 W W.W.W.W.W.",
"W.W.W.W.W.s I q k @ ,.E.Y.E.E.E.E.E.E.E.E.Y.E.E...: t 0 0 0 0 0 0 0 0 0 0 0 0 0 0 0 0 0 0 0 0 0 0 0 0 0 0 0 0 0 q I 8 W.W.W.W.W.",
"W.W.W.W.W.W.8 z 0 t $ i.E.R.Y.R.E.E.R.R.Y.E.R.#.# k 0 0 0 0 0 0 0 0 0 0 0 0 0 0 0 0 0 0 0 0 0 0 0 0 0 0 0 0 0 0 z s W.W.W.W.W.W.",
"W.W.W.W.W.W.W.R 7 0 r % w.E.E.E.E.E.E.E.E.m.' # k 0 0 0 0 0 0 0 0 0 0 0 0 0 0 0 0 0 0 0 0 0 0 0 0 0 0 0 0 0 0 8 R W.W.W.W.W.W.W.",
"W.W.W.W.W.W.W.8 ~ 9 r r #  .h.H.T.Y.J.x.=.1 < i 0 0 0 0 0 0 0 0 0 0 0 0 0 0 0 0 0 0 0 0 0 0 0 0 0 0 0 0 0 0 0 ~ f W.W.W.W.W.W.W.",
"W.W.W.W.W.W.W.W.s Q 7 0 t > # n ( / N ; # r t 0 0 0 0 0 0 0 0 0 0 0 0 0 0 0 0 0 0 0 0 0 0 0 0 0 0 0 0 0 0 7 Q j W.W.W.W.W.W.W.W.",
"W.W.W.W.W.W.W.W.W.g Q 0 0 t t 6 2 2 5 t i 0 0 0 0 0 0 0 0 0 0 0 0 0 0 0 0 0 0 0 0 0 0 0 0 0 0 0 0 0 0 0 0 Q s W.W.W.W.W.W.W.W.W.",
"W.W.W.W.W.W.W.W.W.W.s ~ 8 0 0 r r r r 0 0 0 0 0 0 - - - - - - - - - - - - - - 0 0 0 0 0 0 0 0 0 0 0 0 8 ~ j W.W.W.W.W.W.W.W.W.W.",
"W.W.W.W.W.W.W.W.W.W.W.8 R z 7 0 0 0 0 - - - - - - - * * * * * * * * * * * * - - - - - - - 0 0 0 0 7 z R f W.W.W.W.W.W.W.W.W.W.W.",
"W.W.W.W.W.W.W.W.W.W.W.W.W.s I 8 0 - - * * * * * * * * * * * * * * * * * * * * * * * * * * - - 0 8 I s W.W.W.W.W.W.W.W.W.W.W.W.W.",
"W.W.W.W.W.W.W.W.W.W.W.W.W.W.g W V * * * * * * * * * * * * * * * * * * * * * * * * * * * * * * V W 8 W.W.W.W.W.W.W.W.W.W.W.W.W.W.",
"W.W.W.W.W.W.W.W.W.W.W.W.W.W.W.W.- Q v - w * * * * * * * * * * * * * * * * * * * * * * w - v Q d W.W.W.W.W.W.W.W.W.W.W.W.W.W.W.W.",
"W.W.W.W.W.W.W.W.W.W.W.W.W.W.W.W.W.d q E D - 0 g w - - - - - - - - - - - - - - w g 0 - D E q & W.W.W.W.W.W.W.W.W.W.W.W.W.W.W.W.W.",
"W.W.W.W.W.W.W.W.W.W.W.W.W.W.W.W.W.W.W.W.0 D E L d s & s 0 0 r - - r 0 0 s & s d L E D 0 W.W.W.W.W.W.W.W.W.W.W.W.W.W.W.W.W.W.W.W.",
"W.W.W.W.W.W.W.W.W.W.W.W.W.W.W.W.W.W.W.W.W.W.g q 0 U E Y P Z c d q c Z P Y E U 0 7 g W.W.W.W.W.W.W.W.W.W.W.W.W.W.W.W.W.W.W.W.W.W.",
"W.W.W.W.W.W.W.W.W.W.W.W.W.W.W.W.W.W.W.W.W.W.W.W.W.W.* 7 - g 0 0 d 0 - - 7 * W.W.W.W.W.W.W.W.W.W.W.W.W.W.W.W.W.W.W.W.W.W.W.W.W.W."
};
