/* XPM */
static char *result[] = {
/* columns rows colors chars-per-pixel */
"64 64 174 2 ",
"   c black",
".  c #250000",
"X  c #26201B",
"o  c #232323",
"O  c gray17",
"+  c #5B2A00",
"@  c #5F3300",
"#  c #613700",
"$  c #623C00",
"%  c #743F00",
"&  c #664300",
"*  c #6A4600",
"=  c #6A4A00",
"-  c #6C4D0A",
";  c #794B00",
":  c #725108",
">  c #6B4D16",
",  c #6E511A",
"<  c #70531F",
"1  c #715113",
"2  c #715524",
"3  c #73572B",
"4  c #75592C",
"5  c #795C2D",
"6  c #765B33",
"7  c #795D33",
"8  c #775E38",
"9  c #795F3B",
"0  c #7E6032",
"q  c #7B6039",
"w  c #3D454B",
"e  c #414141",
"r  c gray34",
"t  c #7E6441",
"y  c #7F684A",
"u  c #676767",
"i  c gray45",
"p  c #805500",
"a  c #845E00",
"s  c #866014",
"d  c #8A672E",
"f  c #866326",
"g  c #8B6B3B",
"h  c #846538",
"j  c #916F3E",
"k  c #92703E",
"l  c #806745",
"z  c #846C4D",
"x  c #917143",
"c  c #90734C",
"v  c #846E52",
"b  c #88745C",
"n  c #8F785D",
"m  c #887256",
"M  c #9B7D55",
"N  c #927856",
"B  c #8B6362",
"V  c #8E7B65",
"C  c #957F64",
"Z  c #927F69",
"A  c #A28257",
"S  c #968168",
"D  c #9D8B77",
"F  c #A38867",
"G  c #A68A69",
"H  c #A28766",
"J  c #A18970",
"K  c #A6937D",
"L  c #AF977D",
"P  c #B79C7E",
"I  c #888888",
"U  c #9E9080",
"Y  c #949393",
"T  c #9D9D9E",
"R  c #A99683",
"E  c #A99A8A",
"W  c #B49D84",
"Q  c #B09F8C",
"!  c #AA9E91",
"~  c #B6A087",
"^  c #B4A18E",
"/  c #ABA093",
"(  c #B2A292",
")  c #BAA997",
"_  c gray67",
"`  c #B5ACA3",
"'  c #B8AFA5",
"]  c #B0AFAF",
"[  c #BAB2AC",
"{  c #B3B1AF",
"}  c #AEB3B3",
"|  c #B3B5B4",
" . c #BBBABA",
".. c #B6BCBD",
"X. c #C0968F",
"o. c #CB9A94",
"O. c #F59E9E",
"+. c #C1AC97",
"@. c #C3AF99",
"#. c #C6B19E",
"$. c #D5B69E",
"%. c #C6B5A5",
"&. c #CBB7A4",
"*. c #CEBDAB",
"=. c #CCB9A6",
"-. c #D6B7A0",
";. c #D6B8A2",
":. c #DABBA4",
">. c #D0BEAD",
",. c #DABEA9",
"<. c #C1B9B1",
"1. c #F8A0A0",
"2. c #F7ADAB",
"3. c #DCC1AD",
"4. c #D5C0AB",
"5. c #C7C0B9",
"6. c #CBC4BC",
"7. c #D4C3B3",
"8. c #DEC6B4",
"9. c #DFC9B6",
"0. c #DDCCBD",
"q. c #E1C0A7",
"w. c #E4C3AB",
"e. c #E5C7B0",
"r. c #E2CAB6",
"t. c #EACCB5",
"y. c #E2CCBB",
"u. c #EACEB9",
"i. c #E5D0BF",
"p. c #EED3BF",
"a. c #DFCFC0",
"s. c #D2C9C3",
"d. c #DCD0C4",
"f. c #D8D4CE",
"g. c #D5D0CB",
"h. c #D7D8D8",
"j. c #DEDDDC",
"k. c #D7D4D3",
"l. c #E7D4C5",
"z. c #E8D6C7",
"x. c #E4D6C9",
"c. c #E9D7C8",
"v. c #E7D8CB",
"b. c #EADACB",
"n. c #F1DECE",
"m. c #E2DBD5",
"M. c #EDDED1",
"N. c #E1DDD8",
"B. c #F2DFD0",
"V. c #EEE0D5",
"C. c #E5E1DF",
"Z. c #EEE4DC",
"A. c #F3E2D4",
"S. c #F8E5D5",
"D. c #F4E6DB",
"F. c #FEE5DB",
"G. c #F5E8DD",
"H. c #F9EADD",
"J. c #E3E2E1",
"K. c #E9E6E2",
"L. c #EBEAE9",
"P. c #F6ECE3",
"I. c #F9EDE3",
"U. c #F1EEEB",
"Y. c #F8EFE8",
"T. c #FCF0E5",
"R. c #F4F1EE",
"E. c #FBF3EC",
"W. c #FFF9EC",
"Q. c #F5F4F3",
"!. c #FAF6F2",
"~. c #FDF9F5",
"^. c #FFFEFE",
"/. c None",
/* pixels */
"/./././././././././././././././././././././././././././././././././././././././././././././././././././././././././././././././.",
"/./././././././././././././././././././././././.8.d.4././.x /././.x /./.7.0.>./././././././././././././././././././././././././.",
"/././././././././././././././././././././././././.P 7.V.G a x /.x s F H.*././././.; d /././././././././././././././././././././.",
"/./././././././././././././././././././.p g ) 9.v./.~ =.H.G f x d M D.7.) G.M.A.b.4.M /././././././././././././././././././././.",
"/././././././././././././././././././././.b.0.0.A.W.T.x.D.b.j k s 0.I.b.T.T.b.7.@.*.D./././././././././././././././././././././.",
"/./././././././././././././././././././.7.F ) c.V.D.D.P.D.T.&.; L H.G.I.G.G.P.H.M.@.A @.D /././././././././././././././././././.",
"/./././././././././././././././././.C P M x.T.I.G.G.G.G.G.G.V.s 7.T.D.D.G.G.G.D.G.T.c.c M g 3 /././././././././././././././././.",
"/./././././././././././././././.3 g f n A.I.D.D.G.G.G.G.G.D.I.~ v.P.D.G.G.G.G.G.G.D.P.V.v : h 4 /./././././././././././././././.",
"/././././././././././././././.3 h 1 y V.P.D.D.G.D.P.G.G.G.D.P.a.V.H.G.G.D.G.G.G.G.G.D.I.b.9 , 6 3 /././././././././././././././.",
"/./././././././././././././.3 5 3 - d.H.D.G.G.G.D.D.D.D.D.P.D.D.D.P.P.A.G.H.D.A.G.G.D.D.D.7.= 4 4 3 /./././././././././././././.",
"/././././././././././././.3 5 6 $ ) b.D.G.P.A.b.V.G.P.E.P.E.E.D.P.Q.P.~.P.I.P.b.b.A.G.G.D.0.R * 6 3 3 /././././././././././././.",
"/././././././././././././.3 6 - V &.M.P.P.b.z.D.G.D.P.P.~.~.^.E.~.~.^.P.I.m.d.P.V.z.b.G.I.c.K m , 4 3 /././././././././././././.",
"/./././././././././././.3 4 3 6 S %.P.G.b.z.M.D.[ X  .E.U.^.^.^.^.^.!.E.J.w   [ M.M.l.b.G.I.( 9 6 3 4 4 /./././././././././././.",
"/./././././././././././.3 4 3 q t b.P.A.l.b.z.s.      K.P.^.^.~.^.^.Q.P.|     w Z.r.b.l.B.I.v.6 3 3 3 4 /./././././././././././.",
"/././././././././././.3 5 3 6 $ ( P.D.l.b.y.i.C.w   _ !.U.~.^.^.^.^.!.!.Q.| o  .D.9.y.c.a.D.I.( $ 6 3 5 4 /././././././././././.",
"/././././././././././.4 3 3 6 = l.G.l.y.l.y.r.z.N.h.^.^.^.^.Q.j.j.~.^.^.^.^.Q.D.8.9.y.a.u.=.M.v.= 6 3 3 5 /././././././././././.",
"/./././././././././.3 5 3 7 = Z I.%.&.i.y.r.y.M.~.^.^.^.^.J.e     r L.^.^.^.^.^.R.M.y.9.l.W Q D.Z * 6 3 5 3 /./././././././././.",
"/./././././././././.3 3 3 6 & ( l.z %.y.y.Z.~.^.^.^.^.^.^.u   o O   I ^.^.^.^.^.^.^.E.v.l.~ 2 %.K * 6 3 3 5 /./././././././././.",
"/./././././././././.5 3 3 4 , R Q $ #.b.U.^.^.^.^.^.^.^.^.u   o o   Y ^.^.^.^.^.^.^.^.Q.b.G & n z 2 3 3 3 5 3 /././././././././.",
"/././././././././.4 5 3 3 3 3 q t > N Z.^.^.^.^.^.^.^.^.^.J.r     i Q.^.^.^.^.^.^.^.^.^.L.v = 6 2 3 3 3 4 3 3 /././././././././.",
"/././././././././.3 3 3 3 3 3 3 8 @ ` ^.^.^.^.^.^.^.^.^.^.^.^.]  .^.^.^.^.^.^.^.^.^.^.^.^.L.y < 6 3 3 3 3 3 /./././././././././.",
"/./././././././././.3 3 3 3 3 6 & E ^.^.^.^.^.^.^.^.^.^.J.^.^...| ^.^.k.^.^.^.^.^.^.^.^.^.^.k.# q 3 3 3 5 3 /./././././././././.",
"/./././././././././.3 5 3 3 3 6 & L.^.Q.^.^.^.^.^.^.^.^._ T ..B B } Y _ ^.^.^.^.^.^.^.^.R.f.^.Z * 6 3 3 3 3 /./././././././././.",
"/././././././././././.3 3 3 6 & D ~.) R.^.^.^.^.^.^.E.Y.Y.<.W O.1.o.d.T.P.P.!.^.^.^.^.^.^.! 5.<.+ q 4 3 3 /././././././././././.",
"/././././././././././.3 3 5 6 @ ' / { ^.Q.^.^.^.!.D.D.D.D.T.F.2.2.F.T.D.D.D.D.P.^.^.^.N.^.U.2 U - 7 3 /././././././././././././.",
"/././././././././././././.3 0 2 b = L.Q.6.^.^.^.D.D.G.H.G.D.P.D.D.D.D.G.G.G.H.D.!.^.^.g.[ ^.Z $ q 3 /./././././././././././././.",
"/./././././././././././././.3 6 : t ^.` 6.^.^.~.A.G.G.G.G.G.D.G.D.D.G.D.P.D.G.A.T.^.~.R.= ~.( $ 9 /././././././././././././././.",
"/./././././././././././././././.= b R.= m.K.~.^.b.A.G.D.G.G.G.G.D.G.G.P.D.D.A.c.P.!./.C.. f.s./././././././././././././././././.",
"/./././././././././././././././././.K./.j./.b.~.l.c.M.M.V.D.D.G.D.D.D.M.b.M.l.l.D.A././././././././././././././././././././././.",
"/./././././././././././././././././././././.l.M.c.l.l.c.l.l.b.D.P.M.c.l.c.l.l.l.b.A.c./././././././././././././././././././././.",
"/./././././././././././././././././././././.S.z.l.l.l.l.l.c.l.c.c.l.l.l.l.l.l.l.l.c.l./././././././././././././././././././././.",
"/././././././././././././././././././././.l.b.z.l.c.l.c.l.l.l.l.l.l.l.c.l.c.l.l.l.z.S.l././././././././././././././././././././.",
"/././././././././././././././././././././.A.c.l.l.l.l.l.l.c.l.l.l.l.l.c.l.l.c.l.z.l.z.z././././././././././././././././././././.",
"/./././././././././././././././././././.z.n.z.l.l.l.l.b.l.l.l.c.c.l.l.l.l.l.l.l.l.l.l.A.z./././././././././././././././././././.",
"/./././././././././././././././././././.S.c.l.l.l.c.l.l.l.l.l.l.l.c.l.c.l.l.c.l.z.l.l.l.A./././././././././././././././././././.",
"/././././././././././././././././././.c.b.l.z.z.l.l.l.l.c.l.l.l.l.l.l.l.l.c.l.l.z.z.z.z.n.z././././././././././././././././././.",
"/././././././././././././././././././.S.z.z.c.z.b.b.l.c.z.z.z.c.c.c.l.c.c.l.c.c.z.z.z.z.z.S././././././././././././././././././.",
"/./././././././././././././././././.z.A.z.z.l.c.l.l.c.l.c.l.c.l.l.l.c.l.c.c.c.l.z.z.z.z.z.S.z./././././././././././././././././.",
"/./././././././././././././././././.z.b.c.z.l.c.c.c.c.l.z.z.z.z.c.l.c.c.l.c.l.c.z.z.z.z.z.S.c./././././././././././././././././.",
"/./././././././././././././././././.c.S.l.c.c.c.l.l.c.c.c.c.l.z.c.c.l.c.c.c.l.c.z.z.z.z.z.S././././././././././././././././././.",
"/./././././././././././././././././.z.A.c.z.z.z.z.z.z.c.l.c.z.z.l.c.l.c.z.z.z.c.z.z.z.z.z.n.z./././././././././././././././././.",
"/./././././././././././././././././.z.z.z.z.z.z.z.z.z.z.z.z.z.c.c.l.l.c.z.c.c.l.z.z.z.z.z.z.n./././././././././././././././././.",
"/./././././././././././././././././.S.z.z.z.z.z.l.c.z.z.z.z.z.l.z.c.c.l.z.l.z.z.z.z.c.l.z.z.S./././././././././././././././././.",
"/././././././././././././././././.c.S.z.z.z.z.z.c.z.z.z.z.z.z.c.z.l.c.c.c.c.l.z.z.z.z.c.z.z.S.z././././././././././././././././.",
"/././././././././././././././././.z.S.z.z.z.z.z.z.z.z.z.z.c.z.z.z.z.z.z.c.l.z.z.z.z.l.c.z.z.A.l././././././././././././././././.",
"/././././././././././././././././.y.n.z.z.z.z.z.z.z.z.z.z.z.z.z.z.z.z.z.z.c.z.c.l.c.c.z.z.z.c.r././././././././././././././././.",
"/././././././././././././././././.t.c.z.z.z.z.z.z.c.z.z.z.z.z.z.z.c.z.z.z.z.z.l.c.z.z.z.z.z.b.t.$./././././././././././././././.",
"/./././././././././././././././.$.u.b.z.z.z.z.z.z.z.z.z.z.z.z.z.c.l.z.z.z.z.z.c.z.z.z.z.z.z.c.l.;./././././././././././././././.",
"/./././././././././././././././.$.p.b.c.l.c.l.b.l.c.z.z.z.z.z.z.c.l.z.z.c.z.z.z.z.z.z.z.z.z.z.c.e.:././././././././././././././.",
"/././././././././././././././.$.3.z.l.l.l.c.l.b.c.l.l.c.z.z.z.z.z.z.z.z.l.z.z.z.z.z.z.z.z.z.z.b.9.,.:./././././././././././././.",
"/./././././././././././././.:.w.3.b.z.z.c.c.c.l.l.b.c.z.z.z.z.c.z.z.z.z.c.z.z.z.z.z.z.z.z.z.z.z.r.:.-./././././././././././././.",
"/./././././././././././././.;.w.3.z.z.z.c.l.l.c.z.l.z.z.z.z.z.z.z.z.z.z.z.z.z.z.z.z.z.z.z.z.z.z.3.:.;./././././././././././././.",
"/./././././././././././././.-.w.$.i.b.z.c.c.z.z.z.z.l.l.b.b.c.c.z.z.c.c.b.l.c.c.z.z.z.z.z.z.z.z.;.w.;./././././././././././././.",
"/././././././././././././././.,.$.r.b.z.z.l.z.c.z.z.b.i.y.i.i.z.l.l.l.i.r.y.c.l.z.z.z.z.z.z.z.z.3.,.:./././././././././././././.",
"/././././././././././././././.w.$.z.z.z.l.c.c.l.z.z.z.l.$.$.;.4.:.;.-.$.$.r.b.z.z.z.z.z.z.z.z.c.y.$.t./././././././././././././.",
"/./././././././././././././.;.:.4.b.z.z.z.z.z.z.z.z.z.b.3.$.;.$.-.-.;.;.-.y.z.z.z.z.z.z.z.z.z.c.i.;.:.$././././././././././././.",
"/./././././././././././././.w.$.3.l.l.c.c.l.l.c.z.z.l.b.3.$.;.;.;.;.;.;.$.y.b.l.z.z.z.c.z.z.z.z.l.$.:.$././././././././././././.",
"/./././././././././././././.w.;.3.b.c.l.c.c.c.c.z.z.z.z.,.$.;.;.-.;.;.;.$.8.b.z.z.z.z.z.z.z.z.c.r.$.w.:././././././././././././.",
"/./././././././././././././.:.;.;.i.c.l.l.l.c.c.z.z.z.l.;.-.;.-.;.;.;.;.$.3.z.z.z.z.c.z.z.z.z.c.3.$.,./././././././././././././.",
"/./././././././././././././.;.w.$.i.c.c.c.c.c.l.z.z.l.v.8.$.;.-.;.-.-.;.;.l.z.z.z.z.z.z.z.z.z.z.l.:.:./././././././././././././.",
"/./././././././././././././.;.q.i.l.l.c.z.z.z.z.z.z.z.c.l.-.;.;.;.;.;.;.3.c.l.z.z.z.z.z.z.z.z.z.c.y.w.;././././././././././././.",
"/./././././././././././././.$.3.c.l.c.l.c.z.z.z.z.c.z.z.l.:.-.;.;.;.;.$.3.l.z.z.z.z.z.z.z.z.z.z.z.b.u.$././././././././././././.",
"/./././././././././././././.$.p.b.c.c.b.b.n.n.n.n.B.B.A.A.w.w.w.w.w.w.w.p.S.S.S.S.S.S.S.S.S.S.A.n.A.:./././././././././././././.",
"/././././././././././././././.,.l.l.p.z.z.z.z.l.l.z.z.c.l.;.;.;.;.;.;.$.;.z././././././././././././././././././././././././././."
};
