/* XPM */
static char *result[] = {
/* columns rows colors chars-per-pixel */
"64 64 94 2 ",
"   c #000023",
".  c #060C2E",
"X  c #0F1330",
"o  c #141732",
"O  c #262538",
"+  c #2E2C3C",
"@  c #423E47",
"#  c #433F48",
"$  c #46424B",
"%  c #49454C",
"&  c #504A50",
"*  c #585256",
"=  c #5D575A",
"-  c #665F60",
";  c #686061",
":  c #756D6B",
">  c #7C7471",
",  c #807774",
"<  c #847B77",
"1  c #877E7A",
"2  c #DF5357",
"3  c #DF5659",
"4  c #E15357",
"5  c #E1565A",
"6  c #E0585B",
"7  c #E26567",
"8  c #E16C6A",
"9  c #D28773",
"0  c #D58E7C",
"q  c #C0A37F",
"w  c #978C86",
"e  c #9C918B",
"r  c #A0948D",
"t  c #A69A92",
"y  c #A99D94",
"u  c #B6A99F",
"i  c #B9ACA1",
"p  c #E5948E",
"a  c #E49790",
"s  c #E49890",
"d  c #E99B93",
"f  c #C2A583",
"g  c #C9A286",
"h  c #C4A887",
"j  c #C5A989",
"k  c #CAAD8C",
"l  c #C2B08E",
"z  c #CEB18E",
"x  c #D1B18D",
"c  c #C9AF91",
"v  c #DBAE9C",
"b  c #CDB293",
"n  c #CEB59A",
"m  c #D2B593",
"M  c #D7B996",
"N  c #D0B79D",
"B  c #D1B89D",
"V  c #DCBD99",
"C  c #E1A094",
"Z  c #E6A79D",
"A  c #D6B6A0",
"S  c #D4BDA4",
"D  c #CCBEB1",
"F  c #E7AFA4",
"G  c #EFB6AB",
"H  c #D9C0A5",
"J  c #D7C0A9",
"K  c #D9C3AC",
"L  c #DCC7B1",
"P  c #DEC9B4",
"I  c #D5C5B8",
"U  c #D7C8BA",
"Y  c #DCCCBE",
"T  c #E4CCB4",
"R  c #E2CEBB",
"E  c #E5D1BE",
"W  c #DFCFC1",
"Q  c #E5D4C3",
"!  c #E9D7C5",
"~  c #EAD8C7",
"^  c #E8D7C8",
"/  c #EDDCCC",
"(  c #F0DFCF",
")  c #EFDFD0",
"_  c #F0DFD0",
"`  c #EDE0CF",
"'  c #F2E0CF",
"]  c #EEE1D1",
"[  c #F4E3D2",
"{  c #F9E7D6",
"}  c #FAE8D7",
"|  c #FDEBDA",
" . c #FFF0DF",
".. c None",
/* pixels */
"............................................................................/ / / / / / / / / / / / / / / ......................",
"....................................................................../ / } | } { [ / ^ ) ^ / [ [ [ { } | | | [ / / / ..........",
"..................................................................S [ | / / / / / / ; 1 / > : / / / / / / / / / / { / % # # # ..",
"................................................................j m j R ( / / / ) Y . * Y % O W _ / / / / / / / / [ D X $ $ $ @ ",
"..............................................................k b j h h Q ) / / / ^ = > ) : - / / / / / / / / / / ' U + % @ @ @ ",
"............................................................j m j h j h N / / / / / Q Q [ Q W / / / / / / / / / / / / <   & $ $ ",
"............................................................j j j j j j h R / / / / / / / / ) / / / / / / / / / / / / Q :   o + ",
"..........................................................j m j j j j j f B / / / / / / / / / / / / / / / / / / / / / ( ^ i e 1 ",
"..........................................................j j j h j h j h h Q _ / / / / / / / / / / / / / / / / / / / / / [  ...",
"..........................................................m j h j j j j h f K _ / / / / / / / / / / / / / ' / / / / / / / ' / ..",
"........................................................j b j j j j h j j h b ( / / / / / / / / / / / [ u D [ [ I e ` / / } ....",
"........................................................h j j h h j h j h h h E / / / / / / / / / / / / W e t y w Y ' ( | ......",
"........................................................m j j j j j j j h j q H ) / / / / / / / / / / / ( [ Y W ( [ | / ........",
"......j ..............................................j m j j j h j j j j k u A / ~ / / / / / / / / / / / [ } | } / ( ..........",
"....j ................................................j k j h j j h j h j j h b ) ] ] ] ) ] ] [ ] / ( / / / / / ................",
"....j ................................................j k j j j j j j j h j h j F F F F F F F G Z ..............................",
"..j j ................................................j b j j j j j j j j j j g 3 2 2 2 2 2 4 4 6 ..............................",
"..j j ..................................................m k j k j h k j j j j 0 7 8 8 8 8 8 8 8 8 ..............................",
"..V ......................................................j m k f f f f u q 9 3 3 3 3 3 3 3 3 6 6 ..............................",
"j V ..........................................................N K S B V v s p a s s s s s p p d p ..............................",
"j M ............................................................ .( / ( / / ] ) ] ` ` ] ` ] ] { ] ..............................",
"j M ........................................................../ ` / / / / / / / / / / / / / / ( / ..............................",
"j m ....................................................../ / [ / / / / / / / / / / / / / / / / / ..............................",
"j m j ........................................h B / / / | | ) / / / / / / / / / / / / / / / / / { ..............................",
"j b h ............................j j j j c M m B [ _ / / ^ / / / / / / / / / / / / / / / / / / | ..............................",
"j k k ..................j h j b m m z k j j h h k ! ( / / / / / / / / / / / / / / / / / / / / / | ..............................",
"j b z j ........[ J k m b k j j j j j j j j h h c ~ / / / / / / / / / / / / / / / / / / / / / / | / ............................",
"..m j h ../ / { | R f j j j j j j j j j j j j f n _ ~ / / / / / / / / / / / / / / / / / / / / / | / ............................",
"..k f S / | [ / / / k j j j h j j h j h j j j f L _ / ) / _ ) / / / / / / / / / / / / / / / / / | / ............................",
"..h T ( / / / / / ` K q j j j j j j j j j j h b / / / L S S L / / / / / / / / / / / / / / / / / } / ............................",
"....| / / / / / / / / S f j j j j h j j j f j Q ( / N f f h f b ^ / / / / / / / / / / / / / / / { / ............................",
"....| / / / / / / / / / K h f h h h h f f n ^ ) _ K q j j j h f S ' / / / / / / / / / / / / / / [ / ............................",
"....} / / / / / / / / / ` Q J c c j c N P / / / / n h j j h h h b / / / / / / / / / / / / / / / [ / ............................",
"....} / / / / / / / / / / / ) / ^ Q / ) ) / / / / b h j j j h h j ^ / / / / / / / / / / / / / / [ / ............................",
"....[ / / / / / / / / / / / / / / / / / / / / / ) S f j j j j f S ( / / / / / / / / / / / / / / [ / ............................",
"..../ / / / / / / / / / / / / / / / / / / / / / ) ^ c f h h f c ^ ` / / / / / / / / / / / / / / [ / ............................",
"..../ [ / / / / / / / / / / / / / / / / / / / / / / / L N N J ~ / / / / / / / / / / / / / / / / } / ............................",
"..../ [ / / / / / / / / / / / / / / / / / / / / / / / ) / / _ ( / / / / / / / / / / / / / / / / } Q ............................",
"..../ } / / / / / / / / / / / / / / / / / / / / / / / ^ / / / / / / / / / / / / / / / / / / / / | R ............................",
"..../ } / / / / / / / / / / / / / / / / / / / / / / / / / / / / / / / / / / / / / / / / / / / / | L ............................",
"..../ | / / / / / / / / / / / / / / / / / / / / / / / / / / / / / / / / / / / / / / / / / / / / | S ............................",
"......| / / / / / / / / / / / / / / / / / / / / / / / / / / / / / / / / / / / / / / / / / / / / { ..............................",
"......} / / / / / / / / / / / / / / / / / / / / / / / / / / / ( ( / / / / / / / / / / / / / / ( ' ..............................",
"....../ / / / / / / / / / / / / _ _ [ | | | | | | | | | | | | } } } [ / / / / / / / / / / / / ` ! ..............................",
"....../ [ / / / / / / / / / / / L L L ! ! ! ! ........................( / / / / / / / / / / / ' T ..............................",
"....../ [ / / / / / / / / / / E q z f ................................/ [ / / / / / / / / / / / H ..............................",
"....../ } / / / / / / / / / ) P f M ................................../ { / / / / / / / / / / / m ..............................",
"....../ | / / / / / / / / / [ S f z ................................../ | / / / / / / / / / / ^ j ..............................",
"........| ( / / / / / / / / / n j j ....................................| / / / / / / / / / / E h ..............................",
"........| / / / / / / / / / ! j k j ....................................[ ( / / / / / / / / ' T f ..............................",
"........[ / / / / / / / / ) R h M j ..................................../ ' / / / / / / / / ( H f ..............................",
"......../ / / / / / / / / _ J f m ....................................../ { / / / / / / / / / B h ..............................",
"......../ [ / / / / / / / / N h j ....................................../ | / / / / / / / / Q x h ..............................",
"......../ { / / / / / / / ! k k j ........................................| / / / / / / / ) R k j ..............................",
"......../ } / / / / / / ) R h m j ........................................[ / / / / / / / ) K x j ..............................",
"......../ | / / / / / / ) K f m ........................................../ / / / / / / / / B x ................................",
"..........| / / / / / / / n j j ........................................../ { / / / / / / ^ j m ................................",
"..........{ / / / / / / Q j b j ........................................../ } / / / / / ` Q h m ................................",
"........../ / / / / / ) T f M ..............................................| / / / / / ] L f m ................................",
"........../ ( / / / / / P h k ..............................................{ / / / / / / L h j ................................",
"........../ { / / / / / / Q S k j ........................................../ / / / / / / / Q S k k ............................",
"........../ | / / / / / / / ) K k m ......................................../ { / / / / / / / / J k b ..........................",
"........../ | / / / / / / / / / j b j ....................................../ } / / / / / / / / / j x j ........................",
"............| / / / / / / / / ^ c k j ........................................| / / / / / / / / ^ k k j ........................"
};
