/* XPM */
static char *result[] = {
/* columns rows colors chars-per-pixel */
"64 64 93 2 ",
"   c #3B2A1F",
".  c #001622",
"X  c #001822",
"o  c #1A2121",
"O  c #262E30",
"+  c #282F30",
"@  c #2B3131",
"#  c #313231",
"$  c #3B3431",
"%  c #363836",
"&  c #3A3937",
"*  c #4C311D",
"=  c #673F1F",
"-  c #45362E",
";  c #48372E",
":  c #47382F",
">  c #4B392F",
",  c #543721",
"<  c #453B35",
"1  c #4D3D34",
"2  c #513F34",
"3  c #78471E",
"4  c #45423E",
"5  c #4C443D",
"6  c #524035",
"7  c #55463C",
"8  c #59473B",
"9  c #57483D",
"0  c #5C483C",
"q  c #774823",
"w  c #7B4B23",
"e  c #7C4F2A",
"r  c #7E502C",
"t  c #844A07",
"y  c #8B4E06",
"u  c #864C09",
"i  c #8A4E0B",
"p  c #8D5007",
"a  c #8E510D",
"s  c #965506",
"d  c #9A5707",
"f  c #9D5805",
"g  c #94540D",
"h  c #995709",
"j  c #9B5809",
"k  c #894E10",
"l  c #834E1B",
"z  c #884F1B",
"x  c #8D5112",
"c  c #87501D",
"v  c #8D531C",
"b  c #925414",
"n  c #985811",
"m  c #935619",
"M  c #A45C06",
"N  c #AA5F04",
"B  c #A55D08",
"V  c #A85F08",
"C  c #A15D1D",
"Z  c #AD6103",
"A  c #AA6008",
"S  c #B56502",
"D  c #B96701",
"F  c #BE6A02",
"G  c #B5650D",
"H  c #B8670C",
"J  c #BD6A0B",
"K  c #BD6B13",
"L  c #B5661A",
"P  c #B96919",
"I  c #834F22",
"U  c #855124",
"Y  c #8F5423",
"T  c #84522A",
"R  c #8A572F",
"E  c #915524",
"W  c #9A5A22",
"Q  c #935729",
"!  c #955B2E",
"~  c #9D5E2A",
"^  c #8C5830",
"/  c #A35F21",
"(  c #A56125",
")  c #C56E02",
"_  c #C86F02",
"`  c #C26C0B",
"'  c #CD7201",
"]  c #CC7109",
"[  c #D27500",
"{  c #DB7A01",
"}  c #C26D11",
"|  c #E37E01",
" . c None",
/* pixels */
" . . . . . . . . . . . . . . . . . . . . . . . . . . . . . . . . . . . . . . . . . . . . . . . . . . . . . . . . . . . . . . . .",
" . . . . . . . . . . . . . . . . . . . . . . . . . . . . . . . . . . . . . . . . . . . . . . . . . . . . . . . . . . . . . . . .",
" . . . . . . . . . . . . . . . . . . . . . . . . . . . . . . . . . . . . . . . . . . . . . . . . . . . . . . . . . . . . . . . .",
" . . . . . . . . . . . . . . . . . . . . . . . . . . . . . . . . . . . . . . . . . . . . . . . . . . . . . . . . . . . . . . . .",
" . . . . . . . . . . . . . . . . . . . . . . . . . . . . . . . . . . . . . . . . . . . . . . . . . . . . . . . . . . . . . . . .",
" . . . . . . . . . . . . . . . . . . . . . . . . . . . . . . . . . . . . . . . . . . . . . . . . . . . . . . . . . . . . . . . .",
" . . . . . . . . . . . . . . . . . . . . . . . . . . . . . . . . . . . . . . . . . . . . . . . . . . . . . . . . . . . . . . . .",
" . . . . . . . . . . . . . . . . . . . . . . . . . . . . . . . . . . . . . . . . . . . . . . . . . . . . . . . . . . . . . . . .",
" . . . . . . . . . . . . . . . . . . . . . . . . . . . . . . . . . . . . . . . . . . . . . . . . . . . . . . . . . . . . . . . .",
" . . . . . . . . . . . . . . . . . . . . . . . . . . . . . . . . . . . . . . . . . . . . . . . . . . . . . . . . . . . . . . . .",
" . . . . . . . . . . . . . . . . . . . . . . . . . . . . . . . . . . . . . . . . . . . . . . . . . . . . . . . . . . . . . . . .",
" . . . . . . . . . . . . . . . . . . . . . . . . . . . . . . . . . . . . . . . . . . . . . . . . . . . . . . . . . . . . . . . .",
" . . . . . . . . . . . . . . . . . . . . . . . . . . . . . . . . . . . . . . . . . . . . . . . . . . . . . . . . . . . . . . . .",
" . . . . . . . . . . . . . . . . . . . . . . . . . . . . . . . . . . . . . . . . . . . . . . . . . . . . . . . . . . . . . . . .",
" . . . . . . . . . . . . . . . . . . . . . . . . . . . . . . . . . . . . . . . . . . . . . . . . . . . . . . . . . . . . . . . .",
" . . . . . . . . . . . . . . . . . . . . . . . . . . . . . . . . . . . . . . . . . . . . . . . . . . . . . . . . . . . . . . . .",
" . . . . . . . . . . .Z  . . . . . . . . . . . . .A  . . . . . . . . . . . . .B  . . . . . . . . . . . .)  . . . . . . . . . . .",
" . . . . . . . . . .[ H s  . . . . . . . . . . .[ S s  . . . . . . . . . . .{ Z d  . . . . . . . . . .[ [ V  . . . . . . . . . .",
" . . . . . . . . .[ ' N V h  . . . . . . . . .{ ' M B j  . . . . . . . . .{ _ f V d  . . . . . . . .' { _ f V  . . . . . . . . .",
" . . . . . . . .[ [ ' M s V d  . . . . . . .{ ' ' M s M j  . . . . . . .{ ' _ M h M j  . . . . . .[ { ' _ j s M  . . . . . . . .",
" . . . . . . .[ [ ' ' N s h V h  . . . . .{ ' ' ' M s j A  . . . . . .{ ' ' _ f d h V  . . . . . .| ' [ _ h d d V  . . . . . . .",
" . . . . . . .{ ' ' ' M s s M f  . . . . .{ ' ' ' M s s M f  . . . . .{ ' ' _ M s s M d  . . . .' { ' ' _ j h y M  . . . . . . .",
" . . . . . . .{ ' ' ' N s j M d  . . . . .{ ' ' ' M f u j f  . . . . .{ ' [ ' j p y A h  . . . .' { ' ' _ j s t V  . . . . . . .",
" . . . . . . .[ S ' ' M s d M d  . . . . .{ ' ' ' M s y f j  . . . . .{ ' ' _ M y p M d  . . . .' { ' ' _ f s t M  . . . . . . .",
" . . . . . . .[ Z ' ' N s d B f  . . . . .{ ' ' ' M d t f f  . . . . .| S _ ' f p s M f  . . . .[ { ' ' _ d h s V  . . . . . . .",
" . . . . . . .[ Z ' [ N s d M g  . . . . .{ ' ' ' A s y f b  . . . .} { N _ ' M y y M b  . . . .` { ' ' ' f d h M b  . . . . . .",
"7 9 7 8 0 5 R [ ' ' ) b f s f Y 7 8 0 4 ! [ ] ' ` g f t s c 5 8 0 4 ~ [ D _ J g y y f T 7 7 0 4 ( [ ' ' H g f h f e 5 0 7 8 9 8 ",
"6 6 6 1 2 & T [ ' [ z X s d f c < 6 6 & Q [ ] [ 3 o f p f c < 6 6 & W [ ' [ =   s p M w < 6 6 & / [ ' ' , * f h f q < 6 2 1 2 7 ",
": 1 : : > # U [ _ ' J x d d f k $ > > @ E [ _ ' J x f h f l $ 1 > @ W [ ' ' G k j h M 3 $ : > @ C [ ' ' G k f h M q $ : 1 : 1 - ",
" . . . . . . .[ ' ' [ Z s d M b  . . . .P { ' ' ' A s h M b  . . . .P { ' ' ' B s h M v  . . . .} { ' ' ' f s h M v  . . . . . .",
" . . . . . . .{ ' ' ' M s d B d  . . . . .{ ' ' ' f h j B j  . . . . .{ ' ' ' j h j V  . . . . .[ { ' ' _ s t d M  . . . . . . .",
" . . . . . . .{ ' ' [ M d d M h  . . . . .{ S ' ' M s j B h  . . . . .{ ' ' ' j s h V j  . . . .] { ) D ' d y d M  . . . . . . .",
" . . . . . . .{ [ ' ' N s d V h  . . . . .{ Z _ ' M h h V j  . . . . .[ ' ' ' j h d V j  . . . .] | F S ' h d d M  . . . . . . .",
" . . . . . . .[ ) ' ' M s h M d  . . . . .{ Z _ ' M h h M h  . . . . .F _ ' ' j d h M g  . . . .' { ) S ' d d d V  . . . . . . .",
" . . . . . . .[ N _ [ M s h M d  . . . . .{ Z _ ' M s h B h  . . . . .F _ ' ' j h h B h  . . . .' { F S ' h d d M  . . . . . . .",
" . . . . . . .[ S [ ' M s d f s  . . . . .{ Z _ ' j y g V h  . . . . .F _ ' ' j h s V d  . . . .' { ) S ' d d d M  . . . . . . .",
" . . . . . . .[ N [ ' M d d s y  . . . . .{ S _ ' M t s M f  . . . . .F _ ' ' f s d M j  . . . .' { F D ' h j y j  . . . . . . .",
" . . . . . . .[ S _ ' M s d g y  . . . . .{ _ _ ' B t s M f  . . . . .F _ ' ' j d f V  . . . . .[ { ' ' _ d j u j  . . . . . . .",
" . . . . . . .[ Z ' [ N s f s i  . . . .P { ' ' [ M g d M b  . . . .K _ ' ' ' f d d M b  . . . .} { ' [ ' d d y f m  . . . . . .",
"9 0 9 9 8 5 ^ _ ) ' J g d f y 3 9 0 0 4 ! [ ' ' J x h s f U 7 9 0 4 ~ [ ' ' H a d h f r 7 0 0 4 ( [ ' ' G i f y s e 7 0 9 9 0 7 ",
"2 2 1 1 2 & T [ ' [ l X d h s l < 2 2 & Q [ ' [ 3 o f j f l < 1 6 % W [ ' ' =   f h f w < 1 2 % ( [ ' ' , * f u s q < 1 1 1 1 7 ",
"- < - - : @ I [ ' ' ` g d h f z $ : : + E [ ' ' ` g d s M 3 $ : > + W [ ' ' J a d h M 3 $ : : + n [ ' ' H a f p f 3 $ ; - - - - ",
" . . . . . . .{ ' ' [ Z s d M g  . . . . .{ ' ' ' M s h M s  . . . .J { ' ' ' M s d M g  . . . .} { ' ' ' f s j M b  . . . . . .",
" . . . . . . .{ ' ' ' M s d B f  . . . . .{ ' ' ' B s f M f  . . . . .{ ' ' _ f d d M f  . . . .[ { ' ' _ f s f M  . . . . . . .",
" . . . . . . .{ ' ' ' M s h M h  . . . . .{ ' ' ' M s h V h  . . . . .{ ' [ _ M d d M h  . . . .' { ' [ _ f s h M  . . . . . . .",
" . . . . . . .[ ' ' ' V s d M f  . . . . .{ ' ' ' M s f M j  . . . . .{ ' ' _ f s d M j  . . . .' { ' ' _ j h f M  . . . . . . .",
" . . . . . . .| [ [ [ Z j f A j  . . . . .| ' [ [ A f j V f  . . . . .| [ [ [ V f j A h  . . . .' | [ [ ' M M f A  . . . . . . .",
" . . . . . . .' ' ' [ M d j f  . . . . . .' ' ' ' M s f h  . . . . . .' ' ' ' j h f f  . . . . . .' ' [ _ d h d j  . . . . . . .",
" . . . . . . . . . . . . . . . . . . . . . . . . . . . . . . . . . . . . . . . . . . . . . . . . . . . . . . . . . . . . . . . .",
" . . . . . . . . . . . . . . . . . . . . . . . . . . . . . . . . . . . . . . . . . . . . . . . . . . . . . . . . . . . . . . . .",
" . . . . . . . . . . . . . . . . . . . . . . . . . . . . . . . . . . . . . . . . . . . . . . . . . . . . . . . . . . . . . . . .",
" . . . . . . . . . . . . . . . . . . . . . . . . . . . . . . . . . . . . . . . . . . . . . . . . . . . . . . . . . . . . . . . .",
" . . . . . . . . . . . . . . . . . . . . . . . . . . . . . . . . . . . . . . . . . . . . . . . . . . . . . . . . . . . . . . . .",
" . . . . . . . . . . . . . . . . . . . . . . . . . . . . . . . . . . . . . . . . . . . . . . . . . . . . . . . . . . . . . . . .",
" . . . . . . . . . . . . . . . . . . . . . . . . . . . . . . . . . . . . . . . . . . . . . . . . . . . . . . . . . . . . . . . .",
" . . . . . . . . . . . . . . . . . . . . . . . . . . . . . . . . . . . . . . . . . . . . . . . . . . . . . . . . . . . . . . . .",
" . . . . . . . . . . . . . . . . . . . . . . . . . . . . . . . . . . . . . . . . . . . . . . . . . . . . . . . . . . . . . . . .",
" . . . . . . . . . . . . . . . . . . . . . . . . . . . . . . . . . . . . . . . . . . . . . . . . . . . . . . . . . . . . . . . .",
" . . . . . . . . . . . . . . . . . . . . . . . . . . . . . . . . . . . . . . . . . . . . . . . . . . . . . . . . . . . . . . . .",
" . . . . . . . . . . . . . . . . . . . . . . . . . . . . . . . . . . . . . . . . . . . . . . . . . . . . . . . . . . . . . . . .",
" . . . . . . . . . . . . . . . . . . . . . . . . . . . . . . . . . . . . . . . . . . . . . . . . . . . . . . . . . . . . . . . .",
" . . . . . . . . . . . . . . . . . . . . . . . . . . . . . . . . . . . . . . . . . . . . . . . . . . . . . . . . . . . . . . . .",
" . . . . . . . . . . . . . . . . . . . . . . . . . . . . . . . . . . . . . . . . . . . . . . . . . . . . . . . . . . . . . . . .",
" . . . . . . . . . . . . . . . . . . . . . . . . . . . . . . . . . . . . . . . . . . . . . . . . . . . . . . . . . . . . . . . ."
};
