/* XPM */
static char *result[] = {
/* columns rows colors chars-per-pixel */
"64 64 122 2 ",
"   c #6D6B6B",
".  c #6E6B6B",
"X  c #6F6D6D",
"o  c #716E6E",
"O  c #716F6F",
"+  c #726F6F",
"@  c #727070",
"#  c #737171",
"$  c #747171",
"%  c #747272",
"&  c #757272",
"*  c #757373",
"=  c #767474",
"-  c #777575",
";  c #787575",
":  c #787676",
">  c #797676",
",  c #797777",
"<  c #7A7777",
"1  c #7B7979",
"2  c #7C7A7A",
"3  c #7D7B7B",
"4  c #7E7C7C",
"5  c #7F7D7D",
"6  c #807E7E",
"7  c #807F7F",
"8  c #817F7F",
"9  c #818080",
"0  c #828080",
"q  c #838181",
"w  c #848383",
"e  c #858383",
"r  c #868484",
"t  c #878686",
"y  c #888686",
"u  c #888787",
"i  c #898787",
"p  c #8A8888",
"a  c #8B8989",
"s  c #8B8A8A",
"d  c #8C8B8B",
"f  c #8E8C8C",
"g  c #8E8D8D",
"h  c #8F8D8D",
"j  c #908F8F",
"k  c #918F8F",
"l  c #919090",
"z  c #929090",
"x  c #929191",
"c  c #939292",
"v  c #949393",
"b  c #969494",
"n  c #999898",
"m  c #9A9999",
"M  c #9C9A9A",
"N  c #9E9D9D",
"B  c #9F9E9E",
"V  c #A1A0A0",
"C  c #A2A0A0",
"Z  c #A4A3A3",
"A  c #A6A5A5",
"S  c #A7A6A6",
"D  c #A8A7A7",
"F  c #AAA9A9",
"G  c #AAAAAA",
"H  c #ABAAAA",
"J  c gray68",
"K  c #AEADAD",
"L  c #AFAFAF",
"P  c #B0AFAF",
"I  c gray69",
"U  c #B9B9B9",
"Y  c #BCBBBB",
"T  c #BCBCBC",
"R  c gray74",
"E  c gray",
"W  c #BFBEBE",
"Q  c gray75",
"!  c #C0C0C0",
"~  c #C1C0C0",
"^  c #C0C1C1",
"/  c #C1C1C1",
"(  c #C2C1C1",
")  c gray76",
"_  c #C3C3C3",
"`  c #C3C4C4",
"'  c gray77",
"]  c #C5C5C5",
"[  c #C6C6C6",
"{  c #C7C6C6",
"}  c #C6C7C7",
"|  c gray78",
" . c #C8C8C8",
".. c gray79",
"X. c gray81",
"o. c gray84",
"O. c #D8D8D8",
"+. c gray86",
"@. c gainsboro",
"#. c #DDDDDD",
"$. c gray87",
"%. c #DFDFDF",
"&. c gray88",
"*. c #E1E0E0",
"=. c #E1E1E1",
"-. c #E2E2E2",
";. c gray89",
":. c #E6E6E6",
">. c #EBEAEA",
",. c gray92",
"<. c #ECEBEB",
"1. c #ECECEC",
"2. c #EDECEC",
"3. c gray93",
"4. c #EEEEEE",
"5. c #EFEFEF",
"6. c gray94",
"7. c #F1F1F1",
"8. c gray95",
"9. c #F3F3F3",
"0. c #FBFBFB",
"q. c white",
/* pixels */
"4 4 4 4 4 4 4 4 4 4 4 4 4 4 4 4 4 4 4 4 4 4 4 4 4 4 4 4 4 4 4 4 4 4 4 4 4 4 4 4 4 4 4 4 4 4 4 4 4 4 4 4 4 4 4 4 4 4 4 4 4 4 4 4 ",
"6 6 6 6 8 5 4 4 6 8 6 6 6 6 6 6 6 6 6 6 6 6 6 6 6 6 6 6 6 6 6 6 6 6 6 6 6 7 6 4 4 5 8 6 6 6 6 6 6 6 6 6 6 6 6 6 6 6 6 6 6 6 6 6 ",
"+ @ + @ o - 5 5 = O @ @ @ @ @ @ @ @ @ @ @ + + @ + + @ + @ @ @ + @ + @ + @ + # 4 5 1 O @ + @ @ @ + @ @ @ + @ @ @ + + + @ @ @ @ @ ",
"2.2.2.,.9.{ O # X.8.,.2.2.2.2.2.2.2.2.2.2.2.2.2.2.2.2.2.2.2.2.2.2.2.2.2.1.4.:.w O Z 7.<.2.2.2.2.2.2.2.2.2.2.2.2.2.2.2.2.2.2.2.2.",
"q.q.q.q.q.o.  X &.q.q.q.q.q.q.q.q.q.q.q.q.q.q.q.q.q.q.q.q.q.q.q.q.q.q.q.q.q.0.r   K q.q.q.q.q.q.q.q.q.q.q.q.q.q.q.q.q.q.q.q.q.q.",
"q.q.q.q.q.o.  X &.q.q.q.q.q.q.q.q.q.q.q.q.q.q.q.q.q.q.q.q.q.q.q.q.q.q.q.q.q.0.r   K q.q.q.q.q.q.q.q.q.q.q.q.q.q.q.q.q.q.q.q.q.q.",
"#.#.#.@.;.Y $ * _ -.@.#.#.#.#.#.#.#.#.#.#.#.#.#.#.#.#.#.#.#.#.#.#.#.#.#.#.%.O.q % N =.@.#.#.#.#.#.#.#.#.#.#.#.#.#.#.#.#.#.#.#.#.",
"R R R T / A : , H / T R R R R R R R R R R R R R R R R R R R R R R R R R R E U 8 : x ! T R R R R R R R R R R R R R R R R R R R R ",
"' ' ' _ ..H - : I  ._ ' ' ' ' ' ' ' ' ' ' ' ' ' ' ' ' ' ' ' ' ' ' ' ' ' ' ] ! 0 - v  ._ ' ' ' ' ' ' ' ' ' ' ' ' ' ' ' ' ' ' ' ' ",
"_ _ _ ) | F ; : L | ) _ _ _ _ _ _ _ _ _ _ _ _ _ _ _ _ _ _ _ _ _ _ _ _ _ _ ' Q 9 ; v [ ) _ _ _ _ _ _ _ _ _ _ _ _ _ _ _ _ _ _ _ _ ",
"_ _ _ ) | F ; : L | ) _ _ _ _ _ _ _ _ _ _ _ _ _ _ _ _ _ _ _ _ _ _ _ _ _ _ ' Q 9 ; v [ ) _ _ _ _ _ _ _ _ _ _ _ _ _ _ _ _ _ _ _ _ ",
"_ _ _ ) | F ; : L | ) _ _ _ _ _ _ _ _ _ _ _ _ _ _ _ _ _ _ _ _ _ _ _ _ _ _ ' Q 9 ; v [ ) _ _ _ _ _ _ _ _ _ _ _ _ _ _ _ _ _ _ _ _ ",
"_ _ _ ) | F ; : L | ) _ _ _ _ _ _ _ _ _ _ _ _ _ _ _ _ _ _ _ _ _ _ _ _ _ _ ' Q 9 ; v [ ) _ _ _ _ _ _ _ _ _ _ _ _ _ _ _ _ _ _ _ _ ",
"_ _ _ ) | F ; : L | ) _ _ _ _ _ _ _ _ _ _ _ _ _ _ _ _ _ _ _ _ _ _ _ _ _ ) ' W 9 ; v [ ) _ _ _ _ _ _ _ _ _ _ _ _ _ _ _ _ _ _ _ _ ",
"' ' ` _  .G - : P | _ ` ' ' ' ' ` ' ' ' ' ' ` ' ' ' ' ` ` ' ' ' ' ' ' ` _ ] Q 9 - v | _ ' ' ' ` ' ' ' ' ' ' ' ' ` ' ' ' ' ' ' ` ",
"~ / ! ! ] D : > J ' ! ! / / ~ / ! / / / / ~ ! / / ~ / ! ! / / ~ / / / ! ! ) T 8 : c ' ! / / / ! / / / / / ~ / ~ ! / / ~ / / / ! ",
"0 0 0 0 0 6 4 4 8 0 0 0 0 0 0 0 0 0 0 0 0 0 0 0 0 0 0 0 0 0 0 0 0 0 0 0 0 0 0 4 4 5 0 0 0 0 0 0 0 0 0 0 0 0 0 0 0 0 0 0 0 0 0 0 ",
"5 5 5 5 5 6 7 6 6 5 5 5 5 5 5 5 5 5 5 5 5 5 3 3 3 5 5 5 5 5 5 5 5 5 5 5 5 5 5 6 7 6 5 5 5 5 5 5 5 5 5 5 5 5 5 4 3 3 4 5 5 5 5 5 ",
"@ @ @ @ @ @ @ + @ @ @ @ @ @ @ @ @ @ @ @ @ O 1 5 4 # @ @ @ @ @ @ @ @ @ @ @ @ @ @ + @ @ @ @ @ @ @ @ @ @ @ @ @ O = 5 5 ; O @ @ @ @ ",
"2.2.2.2.2.2.2.2.2.2.2.2.2.2.2.2.2.2.2.2.<.7.Z O w :.4.1.2.2.2.2.2.2.2.2.2.2.2.2.2.2.2.2.2.2.2.2.2.2.2.2.2.,.8.X.# O { 9.,.2.2.2.",
"q.q.q.q.q.q.q.q.q.q.q.q.q.q.q.q.q.q.q.q.q.q.K   r 0.q.q.q.q.q.q.q.q.q.q.q.q.q.q.q.q.q.q.q.q.q.q.q.q.q.q.q.q.q.&.X   o.q.q.q.q.q.",
"q.q.q.q.q.q.q.q.q.q.q.q.q.q.q.q.q.q.q.q.q.q.K   r 0.q.q.q.q.q.q.q.q.q.q.q.q.q.q.q.q.q.q.q.q.q.q.q.q.q.q.q.q.q.*.X   o.q.q.q.q.q.",
"#.#.#.#.#.#.#.#.#.#.#.#.#.#.#.#.#.#.#.#.@.=.N % q O.%.#.#.#.#.#.#.#.#.#.#.#.#.#.#.#.#.#.#.#.#.#.#.#.#.#.#.@.-._ * $ Y ;.@.#.#.#.",
"R R R R R R R R R R R R R R R R R R R R T ! z : 8 U E R R R R R R R R R R R R R R R R R R R R R R R R R R T ^ H , : A / T R R R ",
"' ' ' ' ' ' ' ' ' ' ' ' ' ' ' ' ' ' ' ' _  .v - 0 ! ] ' ' ' ' ' ' ' ' ' ' ' ' ' ' ' ' ' ' ' ' ' ' ' ' ' ' _  .I : - H .._ ' ' ' ",
"_ _ _ _ _ _ _ _ _ _ _ _ _ _ _ _ _ _ _ _ ) [ v ; 9 Q ' _ _ _ _ _ _ _ _ _ _ _ _ _ _ _ _ _ _ _ _ _ _ _ _ _ _ ) | L : - F | ) _ _ _ ",
"_ _ _ _ _ _ _ _ _ _ _ _ _ _ _ _ _ _ _ _ ) [ v ; 9 Q ' _ _ _ _ _ _ _ _ _ _ _ _ _ _ _ _ _ _ _ _ _ _ _ _ _ _ ) | L : - F | ) _ _ _ ",
"_ _ _ _ _ _ _ _ _ _ _ _ _ _ _ _ _ _ _ _ ) [ v ; 9 Q ' _ _ _ _ _ _ _ _ _ _ _ _ _ _ _ _ _ _ _ _ _ _ _ _ _ _ ) | L : - F | ) _ _ _ ",
"_ _ _ _ _ _ _ _ _ _ _ _ _ _ _ _ _ _ _ _ ) [ v ; 9 Q ' _ _ _ _ _ _ _ _ _ _ _ _ _ _ _ _ _ _ _ _ _ _ _ _ _ _ ) | L : - F | ) _ _ _ ",
"_ _ _ _ _ _ _ _ _ _ _ _ _ _ _ _ _ _ _ _ ) [ v ; 9 W ' ) _ _ _ _ _ _ _ _ _ _ _ _ _ _ _ _ _ _ _ _ _ _ _ _ _ ) } L : - F | ) _ _ _ ",
"' ' ` ' ' ' ' ` ` ' ' ` ' ' ' ' ` ' ' ' _ | v - 9 Q ] _ ` ' ' ' ' ' ' ` ` ' ' ' ' ' ' ' ' ' ' ` ' ' ' ' ' _ | P : - G  ._ ' ' ` ",
"~ / ! / / / ~ ! ! / ~ ! / / ~ / ! / / / ! ' c : 8 T ) ! ! / / ~ / / / ! ! / / / / / ~ / / / / ! / / / / / ! ' J > ; D ] ! / / ! ",
"0 0 0 0 0 0 0 0 0 0 0 0 0 0 0 0 0 0 0 0 0 0 5 4 4 0 0 0 0 0 0 0 0 0 0 0 0 0 0 0 0 0 0 0 0 0 0 0 0 0 0 0 0 0 0 8 4 4 6 0 0 0 0 0 ",
"5 5 5 5 5 5 5 5 5 5 5 3 3 3 5 5 5 5 5 5 5 5 6 7 6 5 5 5 5 5 5 5 5 5 5 5 5 5 5 3 3 3 5 5 5 5 5 5 5 5 5 5 5 5 5 6 6 6 6 5 5 5 5 5 ",
"@ @ @ @ @ @ @ @ @ @ @ 2 5 3 @ @ @ @ @ @ @ @ @ + + @ @ @ @ @ @ @ @ @ @ @ @ @ # 4 5 1 O @ @ @ @ @ @ @ @ @ @ @ @ @ + + @ @ @ @ @ @ ",
"2.2.2.2.2.2.2.2.2.1.4.b + k 2.3.1.2.2.2.2.2.2.2.2.2.2.2.2.2.2.2.2.2.2.2.1.4.:.w O Z 7.<.2.2.2.2.2.2.2.2.2.2.2.2.2.2.2.2.2.2.2.2.",
"q.q.q.q.q.q.q.q.q.q.q.M . b q.q.q.q.q.q.q.q.q.q.q.q.q.q.q.q.q.q.q.q.q.q.q.q.0.r   K q.q.q.q.q.q.q.q.q.q.q.q.q.q.q.q.q.q.q.q.q.q.",
"q.q.q.q.q.q.q.q.q.q.q.M . b q.q.q.q.q.q.q.q.q.q.q.q.q.q.q.q.q.q.q.q.q.q.q.q.0.r   K q.q.q.q.q.q.q.q.q.q.q.q.q.q.q.q.q.q.q.q.q.q.",
"#.#.#.#.#.#.#.#.#.#.$.l % f #.#.#.#.#.#.#.#.#.#.#.#.#.#.#.#.#.#.#.#.#.#.#.%.O.q % N =.@.#.#.#.#.#.#.#.#.#.#.#.#.#.#.#.#.#.#.#.#.",
"R R R R R R R R R R E p : t R R R R R R R R R R R R R R R R R R R R R R R E U 8 : x ! T R R R R R R R R R R R R R R R R R R R R ",
"' ' ' ' ' ' ' ' ' ' ] s ; i ' ' ' ' ' ' ' ' ' ' ' ' ' ' ' ' ' ' ' ' ' ' ' ] ! 0 - v  ._ ' ' ' ' ' ' ' ' ' ' ' ' ' ' ' ' ' ' ' ' ",
"_ _ _ _ _ _ _ _ _ _ ' s ; u _ _ _ _ _ _ _ _ _ _ _ _ _ _ _ _ _ _ _ _ _ _ _ ' Q 9 ; v [ ) _ _ _ _ _ _ _ _ _ _ _ _ _ _ _ _ _ _ _ _ ",
"_ _ _ _ _ _ _ _ _ _ ' s ; u _ _ _ _ _ _ _ _ _ _ _ _ _ _ _ _ _ _ _ _ _ _ _ ' Q 9 ; v [ ) _ _ _ _ _ _ _ _ _ _ _ _ _ _ _ _ _ _ _ _ ",
"_ _ _ _ _ _ _ _ _ _ ' s ; u _ _ _ _ _ _ _ _ _ _ _ _ _ _ _ _ _ _ _ _ _ _ _ ' Q 9 ; v [ ) _ _ _ _ _ _ _ _ _ _ _ _ _ _ _ _ _ _ _ _ ",
"_ _ _ _ _ _ _ _ _ _ ' s ; u _ _ _ _ _ _ _ _ _ _ _ _ _ _ _ _ _ _ _ _ _ _ _ ' Q 9 ; v [ ) _ _ _ _ _ _ _ _ _ _ _ _ _ _ _ _ _ _ _ _ ",
"_ _ _ _ _ _ _ _ _ _ ' s ; u _ _ _ _ _ _ _ _ _ _ _ _ _ _ _ _ _ _ _ _ _ _ ) ' W 9 ; v [ ) _ _ _ _ _ _ _ _ _ _ _ _ _ _ _ _ _ _ _ _ ",
"' ' ` ' ' ' ' ` ` _ ] s ; i _ ' ` ' ' ' ' ' ` ' ' ' ' ` ` ' ' ' ' ' ' ` _ ] Q 9 - v | _ ' ' ' ` ' ' ' ' ' ' ' ' ` ' ' ' ' ' ' ` ",
"~ / ! / / / ~ ! ! ! ( a : y ! / ! / / / / ~ ! / / ~ / ! ! / / ~ / / / ! ! ) T 8 : c ' ! / / / ! / / / / / ~ / ~ ! / / ~ / / / ! ",
"0 0 0 0 0 0 0 0 0 0 0 5 4 4 0 0 0 0 0 0 0 0 0 0 0 0 0 0 0 0 0 0 0 0 0 0 0 0 0 4 4 5 0 0 0 0 0 0 0 0 0 0 0 0 0 0 0 0 0 0 0 0 0 0 ",
"5 5 5 5 5 5 5 5 5 5 5 6 7 6 5 5 5 5 5 5 5 5 5 5 5 3 3 3 5 5 5 5 5 5 5 5 5 5 5 6 7 6 5 5 5 5 5 5 5 5 5 5 5 5 5 5 5 5 5 5 5 3 3 3 ",
"@ @ @ @ @ @ @ @ @ @ @ @ @ @ @ @ @ @ @ @ @ @ @ @ @ 3 5 2 + @ @ @ @ @ @ @ @ @ @ @ + @ @ @ @ @ @ @ @ @ @ @ @ @ @ @ @ @ @ @ + 2 5 4 ",
"2.2.2.2.2.2.2.2.2.2.2.2.2.2.2.2.2.2.2.2.2.2.1.3.>.d + m 5.1.2.2.2.2.2.2.2.2.2.2.2.2.2.2.2.2.2.2.2.2.2.2.2.2.2.2.2.2.2.1.6.B & 6 ",
"q.q.q.q.q.q.q.q.q.q.q.q.q.q.q.q.q.q.q.q.q.q.q.q.q.j . V q.q.q.q.q.q.q.q.q.q.q.q.q.q.q.q.q.q.q.q.q.q.q.q.q.q.q.q.q.q.q.q.q.S + 8 ",
"q.q.q.q.q.q.q.q.q.q.q.q.q.q.q.q.q.q.q.q.q.q.q.q.q.j . C q.q.q.q.q.q.q.q.q.q.q.q.q.q.q.q.q.q.q.q.q.q.q.q.q.q.q.q.q.q.q.q.q.S + 8 ",
"#.#.#.#.#.#.#.#.#.#.#.#.#.#.#.#.#.#.#.#.#.#.#.$.+.p % b &.#.#.#.#.#.#.#.#.#.#.#.#.#.#.#.#.#.#.#.#.#.#.#.#.#.#.#.#.#.#.@.=.n = 6 ",
"R R R R R R R R R R R R R R R R R R R R R R R R T e : d Q R R R R R R R R R R R R R R R R R R R R R R R R R R R R R R T ! h < 5 ",
"' ' ' ' ' ' ' ' ' ' ' ' ' ' ' ' ' ' ' ' ' ' ' ] _ r - g [ ' ' ' ' ' ' ' ' ' ' ' ' ' ' ' ' ' ' ' ' ' ' ' ' ' ' ' ' ' ' ' | l , 5 ",
"_ _ _ _ _ _ _ _ _ _ _ _ _ _ _ _ _ _ _ _ _ _ _ _ ( r ; f ] ) _ _ _ _ _ _ _ _ _ _ _ _ _ _ _ _ _ _ _ _ _ _ _ _ _ _ _ _ _ ) [ k , 5 ",
"_ _ _ _ _ _ _ _ _ _ _ _ _ _ _ _ _ _ _ _ _ _ _ _ ( r ; f ] ) _ _ _ _ _ _ _ _ _ _ _ _ _ _ _ _ _ _ _ _ _ _ _ _ _ _ _ _ _ ) [ k , 5 ",
"_ _ _ _ _ _ _ _ _ _ _ _ _ _ _ _ _ _ _ _ _ _ _ _ ( r ; f ] ) _ _ _ _ _ _ _ _ _ _ _ _ _ _ _ _ _ _ _ _ _ _ _ _ _ _ _ _ _ ) [ k , 5 ",
"_ _ _ _ _ _ _ _ _ _ _ _ _ _ _ _ _ _ _ _ _ _ _ _ ( r ; f ] ) _ _ _ _ _ _ _ _ _ _ _ _ _ _ _ _ _ _ _ _ _ _ _ _ _ _ _ _ _ ) [ k , 5 ",
"_ _ _ _ _ _ _ _ _ _ _ _ _ _ _ _ _ _ _ _ _ _ _ _ ( r ; f ] ) _ _ _ _ _ _ _ _ _ _ _ _ _ _ _ _ _ _ _ _ _ _ _ _ _ _ _ _ _ ) [ k , 5 ",
"_ _ _ _ _ _ _ _ _ _ _ _ _ _ _ _ _ _ _ _ _ _ _ _ ( r ; f ] ) _ _ _ _ _ _ _ _ _ _ _ _ _ _ _ _ _ _ _ _ _ _ _ _ _ _ _ _ _ ) [ k , 5 ",
"_ _ _ _ _ _ _ _ _ _ _ _ _ _ _ _ _ _ _ _ _ _ _ _ ( r ; f ] ) _ _ _ _ _ _ _ _ _ _ _ _ _ _ _ _ _ _ _ _ _ _ _ _ _ _ _ _ _ ) [ k , 5 "
};
